<svg xmlns="http://www.w3.org/2000/svg" width="2553" height="1029" viewBox="0 0 2553 1029" fill="none"><path d="M1340.98 762.424H1701.59V696.57H1340.98V762.424ZM1212.03 331.65H1170.76C1153.42 331.65 1141.68 344.07 1141.68 361.3V527.744C1141.68 545.708 1154.07 558.082 1171.58 558.082H1212.03V331.65ZM1285.35 266.576V637.729C1285.35 681.402 1266.28 762.424 1141.68 762.424H1110.82V696.57H1141.68C1190.71 695.654 1211.02 674.528 1211.85 638.233V623.248H1150.54C1101.79 623.248 1068.41 589.656 1068.41 539.292V350.577C1068.41 300.396 1101.06 266.576 1150.54 266.576H1285.35ZM1701.59 350.577V623.248H1628.31V361.53C1628.31 343.382 1616.67 331.65 1599.38 331.65H1557.97V623.248H1484.65V331.65H1414.3V623.248H1340.98V266.576H1619.46C1670.64 266.576 1701.59 299.022 1701.59 350.577ZM1737.82 963.696H1032.18C975.272 963.696 945.878 933.725 945.878 875.433V153.566C945.878 95.3664 975.181 65.3036 1032.18 65.3036H1737.82C1794.77 65.3036 1824.17 95.2748 1824.17 153.566V875.433C1824.17 933.68 1794.82 963.696 1737.82 963.696ZM1888 146.738C1888 57.7879 1831.64 0 1744.51 0H1025.48C938.495 0 882 57.6509 882 146.738V882.261C882 971.258 938.404 1029 1025.53 1029H1744.51C1831.5 1029 1888 971.349 1888 882.261V146.738Z" fill="white"></path></svg>