<svg xmlns="http://www.w3.org/2000/svg" width="2591" height="299" viewBox="0 0 2591 299" fill="none"><path d="M1662.53 166.683H1758.93V188.998H1662.53V166.683Z" fill="white"></path><path d="M59.4627 31.291L50.8343 255.325V259.209C50.8343 278.203 56.4445 282.09 86.6405 284.246V294.61C64.6398 292.883 56.0114 292.45 43.9316 292.45C31.8552 292.45 23.2268 292.883 0.792969 294.61V284.246C30.9924 282.09 35.3032 278.636 36.1661 255.325L45.2276 43.3781V40.7914C45.2276 20.9272 39.1877 16.6138 9.42138 14.8871V4.09672C26.2451 5.39008 32.7147 5.82682 44.7945 5.82682C60.7587 5.82682 69.3871 5.39008 85.7777 3.66335L166.022 222.088L247.555 3.66335C266.971 5.39008 276.029 5.82682 288.972 5.82682C299.755 5.82682 306.658 5.39008 323.049 4.09672V14.8871C293.716 16.6138 287.243 20.9272 287.243 40.3546V43.3781L291.99 255.325C292.423 278.636 296.304 282.09 327.366 284.246V294.61C300.189 292.017 289.834 291.153 273.44 291.153C257.046 291.153 246.692 292.017 219.515 294.61V284.246C248.851 282.52 255.321 277.773 255.321 257.485V255.325L251.436 31.7243L180.257 224.244L175.08 238.491L169.04 254.462L163.433 270.866L158.686 285.113H152.213L147.472 271.299L141.429 254.462L135.389 237.628L130.212 222.518L59.4627 31.291Z" fill="white"></path><path d="M383.415 170.718C387.729 121.08 404.123 95.6089 431.734 95.6089C459.774 95.6089 474.009 119.783 476.601 170.718H383.415ZM439.499 283.815C400.242 283.815 382.985 253.598 382.552 186.259H511.112C510.249 119.783 483.071 84.3851 432.163 84.3851C380.393 84.3851 348.038 126.26 348.038 192.736C348.038 259.211 380.393 298.066 436.048 298.066C478.324 298.066 505.935 271.728 511.545 227.267H494.288C489.107 263.958 470.128 283.815 439.499 283.815" fill="white"></path><path d="M536.796 100.358V92.5879C561.385 90.4312 576.054 87.8411 593.743 82.6575C595.899 98.6314 596.762 105.535 597.625 118.485V123.236C607.112 98.6314 625.665 84.3842 648.096 84.3842C669.667 84.3842 685.631 98.6314 685.631 119.349C685.631 131.869 678.298 140.073 667.511 140.073C657.587 140.073 649.828 134.026 649.828 125.396C649.828 124.532 650.258 122.809 650.688 121.079L651.55 116.762V112.875C651.55 106.832 646.37 102.515 638.604 102.515C616.174 102.515 601.935 129.713 601.935 172.444V262.664C601.935 281.224 606.253 284.678 632.564 285.971V294.612C608.841 292.448 599.78 292.015 584.682 292.015C569.151 292.015 560.093 292.448 536.366 294.612V285.971C562.681 284.678 567.425 281.224 567.425 262.664V128.416V121.509C566.995 102.948 564.837 100.788 542.406 100.358H536.796Z" fill="white"></path><path d="M850.657 80.5051V151.727H841.163C833.397 114.173 817.443 96.0388 791.118 96.0388C758.77 96.0388 739.78 131.007 739.78 192.736C739.78 253.171 756.611 283.815 789.822 283.815C816.577 283.815 832.534 264.821 837.715 226.837H855.398C849.791 273.025 825.202 298.066 786.377 298.066C736.332 298.066 702.252 255.758 702.252 192.736C702.252 128.417 736.762 84.3851 787.67 84.3851C806.219 84.3851 817.869 89.1319 831.678 102.512L843.321 80.5051H850.657Z" fill="white"></path><path d="M921.5 170.718C925.814 121.08 942.208 95.6089 969.819 95.6089C997.86 95.6089 1012.09 119.783 1014.69 170.718H921.5ZM977.585 283.815C938.331 283.815 921.067 253.598 920.637 186.259H1049.2C1048.33 119.783 1021.16 84.3851 970.252 84.3851C918.478 84.3851 886.127 126.26 886.127 192.736C886.127 259.211 918.478 298.066 974.137 298.066C1016.41 298.066 1044.02 271.728 1049.63 227.267H1032.37C1027.2 263.958 1008.22 283.815 977.585 283.815" fill="white"></path><path d="M1168.67 286.402C1137.61 286.402 1121.22 254.031 1121.22 192.302C1121.22 129.713 1136.31 99.0623 1167.38 99.0623C1199.3 99.0623 1215.69 131.867 1215.69 195.329C1215.69 255.324 1199.73 286.402 1168.67 286.402ZM1249.78 249.714V0.499997C1228.2 6.25237 1208.79 9.70583 1184.63 12.2993V19.6362C1211.81 19.6362 1215.26 22.6597 1215.26 45.1037V120.646C1199.3 94.7488 1186.79 86.9752 1163.49 86.9752C1117.33 86.9752 1084.98 130.573 1084.98 192.736C1084.98 254.894 1117.76 298.499 1164.79 298.499C1189.38 298.499 1206.2 287.272 1218.28 263.098C1220.01 279.498 1220.01 281.225 1224.32 297.633C1242.01 292.016 1249.35 290.289 1274.79 287.272L1281.26 286.405V279.069C1252.36 278.202 1249.78 276.045 1249.78 249.714" fill="white"></path><path d="M1332.98 170.718C1337.29 121.08 1353.69 95.6089 1381.29 95.6089C1409.34 95.6089 1423.57 119.783 1426.16 170.718H1332.98ZM1389.07 283.815C1349.81 283.815 1332.55 253.598 1332.12 186.259H1460.68C1459.81 119.783 1432.63 84.3851 1381.73 84.3851C1329.96 84.3851 1297.6 126.26 1297.6 192.736C1297.6 259.211 1329.96 298.066 1385.61 298.066C1427.89 298.066 1455.5 271.728 1461.1 227.267H1443.85C1438.67 263.958 1419.69 283.815 1389.07 283.815" fill="white"></path><path d="M1497.29 298.5V226.404L1506.78 225.974C1514.55 265.255 1532.67 284.246 1562.87 284.246C1588.32 284.246 1607.3 267.409 1607.3 245.395C1607.3 230.717 1599.1 220.791 1577.97 211.294L1561.56 203.953L1541.72 194.893C1510.23 180.212 1500.31 168.125 1500.31 143.095C1500.31 108.99 1527.06 85.6826 1565.02 85.6826C1581.85 85.6826 1594.36 89.5694 1609.03 99.4964L1616.36 81.7958H1624.12V148.701H1614.2C1610.31 114.174 1596.08 97.7697 1568.9 97.7697C1546.04 97.7697 1528.36 113.31 1528.36 133.598C1528.36 150.865 1534.82 156.475 1574.08 173.739L1592.2 181.513C1624.98 195.753 1636.63 209.567 1636.63 235.038C1636.63 271.299 1607.74 297.2 1567.17 297.2C1547.33 297.2 1531.8 292.016 1515.41 279.069L1505.05 298.5H1497.29Z" fill="white"></path><path d="M1876.52 149.57C1899.39 149.57 1912.33 153.45 1922.25 163.381C1932.17 173.311 1937.78 191.872 1937.78 212.589C1937.78 255.757 1916.21 279.935 1877.81 279.935H1862.29C1839.42 279.935 1835.54 276.475 1835.54 257.484V149.57H1876.52ZM1835.54 18.776H1872.21C1908.45 18.776 1924.4 36.4732 1924.4 76.6179C1924.4 96.4685 1919.67 110.719 1910.17 121.943C1900.68 132.733 1889.03 136.187 1864.87 136.187H1835.54V18.776ZM1962.8 75.7545C1962.8 53.3037 1953.31 33.4498 1936.92 20.9293C1922.25 10.1389 1905.42 5.38874 1877.39 5.38874H1763.92V16.1859C1794.98 17.9092 1799.3 21.366 1799.3 44.6735V254.034C1799.3 277.341 1795.85 280.362 1763.92 282.955V293.312H1873.07C1904.99 293.312 1922.25 289.429 1940.36 278.201C1961.94 264.391 1976.18 238.06 1976.18 210.866C1976.18 187.555 1966.26 166.404 1949.43 153.45C1940.36 146.547 1930.88 142.66 1915.35 139.637C1946.41 127.986 1962.8 105.972 1962.8 75.7545" fill="white"></path><path d="M2046.59 170.718C2050.91 121.08 2067.3 95.6089 2094.91 95.6089C2122.95 95.6089 2137.19 119.783 2139.78 170.718H2046.59ZM2102.68 283.815C2063.42 283.815 2046.16 253.598 2045.73 186.259H2174.28C2173.42 119.783 2146.25 84.3851 2095.35 84.3851C2043.57 84.3851 2011.22 126.26 2011.22 192.736C2011.22 259.211 2043.57 298.066 2099.23 298.066C2141.5 298.066 2169.11 271.728 2174.72 227.267H2157.47C2152.29 263.958 2133.31 283.815 2102.68 283.815" fill="white"></path><path d="M2197.12 102.084V94.7472C2222.15 91.2904 2236.82 87.8403 2254.07 81.7968C2256.23 91.7204 2257.52 102.947 2258.39 119.351C2273.91 96.0406 2291.6 85.6802 2316.63 85.6802C2342.51 85.6802 2364.94 99.0607 2373.57 120.211C2377.88 130.572 2380.04 142.659 2380.04 159.063V262.666C2380.04 281.224 2384.36 284.68 2410.67 285.974V294.611C2387.81 292.451 2379.18 292.017 2363.65 292.017C2347.69 292.017 2339.06 292.451 2316.63 294.611V285.974C2339.92 285.114 2345.53 280.794 2345.53 263.53V157.769C2345.53 120.211 2334.32 105.108 2306.71 105.108C2277.37 105.108 2261.84 123.668 2261.84 159.063V263.53C2261.84 280.794 2267.44 285.114 2289.88 285.974V294.611C2267.44 292.451 2258.82 292.017 2243.29 292.017C2228.19 292.017 2219.13 292.451 2196.7 294.611V285.974C2223.01 284.68 2227.32 281.224 2227.32 262.666V129.278V122.808C2226.89 105.108 2224.31 102.514 2202.73 102.514C2201.44 102.514 2199.29 102.084 2197.12 102.084Z" fill="white"></path><path d="M2427.44 293.312L2544.36 100.789H2491.29C2463.25 100.789 2456.35 106.833 2440.82 145.681H2432.19L2442.11 89.5688H2590.52L2473.18 282.092H2523.65C2552.99 282.092 2565.06 270.432 2578 231.154H2587.07L2575.85 293.312H2427.44Z" fill="white"></path></svg>