<svg xmlns="http://www.w3.org/2000/svg" width="2500" height="327" viewBox="0 0 2500 327" fill="none"><path d="M2136.5 129.862V326.309H2199.29V195.344H2428.93V326.309H2491.72V129.862H2136.5ZM2192.11 66.173H2434.31C2468.4 59.8939 2492.62 29.3951 2499.79 0.69043H2126.63C2133.81 29.3951 2158.92 58.9969 2192.11 66.173ZM1945.43 326.309C1976.83 312.854 1993.87 289.531 2001.05 262.621H1718.49V1.58745H1654.8V326.309H1945.43M1183.86 65.276H1408.12C1442.2 55.4088 1470.01 29.3951 1477.19 1.58745H1121.97V193.55H1412.6V260.827H1184.76C1148.88 270.694 1118.38 294.914 1103.13 326.309H1475.39V129.862H1184.76L1183.86 65.276ZM631.297 66.173H873.493C907.579 59.8939 932.696 29.3951 938.975 0.69043H564.917C572.093 29.3951 597.21 58.9969 631.297 66.173ZM631.297 194.447H873.493C907.579 188.168 932.696 157.669 938.975 128.965H564.917C572.093 157.669 597.21 187.271 631.297 194.447ZM631.297 326.309H873.493C907.579 320.03 932.696 289.531 938.975 260.827H564.917C572.093 289.531 597.21 320.03 631.297 326.309Z" fill="white"></path><path d="M0.69043 1.58745C7.8666 30.2922 32.9832 58.9969 66.173 66.173H168.434L173.816 67.9671V325.412H237.504V67.9671L242.886 66.173H345.147C379.234 57.2028 403.453 30.2922 410.629 1.58745V0.69043L0.69043 1.58745Z" fill="white"></path></svg>