<svg xmlns="http://www.w3.org/2000/svg" width="1815" height="625" viewBox="0 0 1815 625" fill="none"><path d="M1286.27 388.18C1286.15 387.896 1286.08 387.591 1286.07 387.258C1286.08 387.347 1286.08 387.373 1286.08 387.426C1286.38 390.588 1287.22 396.538 1287.89 400.988C1288.95 398.993 1289.99 396.872 1291.1 394.625C1291.93 392.92 1291.52 392.392 1290.79 392.121C1288.69 391.374 1286.55 389.805 1286.27 388.18L1286.27 388.18Z" fill="white"></path><path d="M1322.65 340.255C1322.95 343.648 1325.55 344.061 1327.68 341.081C1328.24 340.255 1328.88 339.247 1329.63 338.108C1329.03 337.308 1328.42 336.532 1327.78 335.739C1324.82 332.26 1317.77 324.751 1310.94 318.86C1317.73 325.266 1321.87 333.086 1322.65 340.255V340.255Z" fill="white"></path><path d="M1186.55 106.635C1186.86 107.072 1187.13 107.537 1187.41 108.036C1187.13 107.501 1186.86 107.009 1186.55 106.635Z" fill="white"></path><path d="M907.688 0C406.855 0 0.859375 139.887 0.859375 312.504C0.859375 485.091 406.851 625 907.688 625C1408.48 625 1814.45 485.091 1814.45 312.504C1814.45 139.887 1408.48 0 907.688 0ZM907.688 27.0676C1390.92 27.0676 1782.6 154.833 1782.6 312.5C1782.6 470.167 1390.92 597.958 907.688 597.958C424.449 597.958 32.7477 470.167 32.7477 312.5C32.7477 154.833 424.449 27.0676 907.688 27.0676V27.0676ZM671.096 77.8345C658.227 77.8747 645.294 78.376 632.273 79.4414C545.777 86.6502 463.453 134.872 463.3 208.076C463.213 245.193 489.861 275.277 531.158 273.949C579.689 272.33 619.531 233.831 640.384 185.296C648.305 166.881 633.639 159.232 626.669 169.833C614.22 188.936 596.671 203.763 577.696 212.97C554.857 224.038 530.455 221.051 523.061 202.685C512.657 176.791 534.282 138.038 583.631 119.798C654.905 93.6724 729.488 110.952 801.249 124.303C802.274 124.303 806.092 126.401 802.709 128.145C789.856 135.077 777.214 140.726 757.495 157.519C743.367 169.505 724.866 185.458 710.556 202.836C696.355 219.963 686.283 235.241 672.96 252.173C671.105 254.617 668.819 254.507 668.846 254.507C636.38 259.935 604.592 263.572 575.493 283.612C569.478 287.722 566.864 295.018 570.515 300.612C573.798 305.561 581.291 306.089 586.503 302.333C604.587 288.943 623.203 282.638 644.547 282.057C645.478 282.113 645.923 282.271 646.187 282.833C646.353 283.156 646.251 283.827 645.867 284.329C613.889 328.252 605.89 338.175 581.833 365.411C569.531 379.405 557.419 391.22 543.896 403.513C489.275 453.76 430.532 452.892 409.455 421.384C396.862 402.484 398.523 382.638 406.774 366.172C416.934 346.003 437.478 331.23 454.548 322.598C460.884 319.393 462.714 311.365 456.368 304.054C452.327 299.283 442.545 298.441 435.261 299.762C412.886 303.852 386.452 320.595 370.83 340.748C353.229 363.362 344.435 390.819 347.384 421.623C352.686 477.215 398.918 509.333 451.4 508.96C493.165 508.636 532.514 496.113 579.851 448.529C623.978 404.153 664.171 337.871 701.811 276.405C702.989 274.443 703.836 273.384 709.552 272.68C733.165 269.756 768.02 266.424 790.369 265.146C795.337 264.881 796.338 264.934 798.333 267.392C804.159 274.664 812.897 280.83 819.904 284.587C823.313 286.42 824.943 287.336 827.622 287.389C830.932 287.455 833.506 285.692 835.167 283.822C837.539 281.248 838.199 277.885 836.914 275.717C835.579 273.441 819.989 264.883 819.532 261.424C819.185 259.267 821.577 258.747 821.577 258.747C833.028 255.189 844.946 247.874 852.167 234.18C859.264 220.688 860.414 202.694 847.438 192.687C836.04 183.899 818.829 185.289 805.092 197.489C791.665 209.343 787.215 226.57 789.034 241.682C789.354 244.295 789.217 245.186 785.614 245.484C764.96 247.119 745.059 247.682 722.937 248.845C721.452 248.95 720.984 247.984 721.845 246.969C747.326 203.132 785.372 171.922 827.456 141.181C830.246 139.11 829.394 135.172 829.284 131.881C905.265 148.228 978.69 178.651 1057.52 178.004C1090.11 177.74 1121.32 172.827 1151.16 156.625C1177.39 142.455 1188.03 129.35 1188.81 115.735C1189.43 106.319 1182.82 100.372 1173.4 102.394C1093.76 120.519 1017.78 120.313 938.536 110.815C848.033 99.9427 761.182 77.5522 671.096 77.8345V77.8345ZM830.071 204.862C831.932 204.961 833.673 205.579 835.083 206.774C839.28 210.322 837.298 219.183 833.057 225.318C828.422 232.081 820.566 237.926 813.399 239.347C811.961 239.611 810.717 239.004 810.122 235.849C808.954 227.504 811.703 216.32 820.705 208.447C823.529 205.976 826.969 204.696 830.071 204.862V204.862ZM1469.47 206.48C1454.99 206.48 1435.99 206.513 1420.9 206.513C1417.31 206.513 1415.45 206.95 1413.75 210.253C1408.19 220.822 1340.31 321.528 1327.68 341.086C1325.55 344.066 1322.95 343.652 1322.65 340.259C1321.37 328.643 1311.24 315.294 1295.28 308.907C1283.11 304.018 1271.22 303.134 1258.86 304.76C1236.54 307.726 1216.65 319.395 1199.16 332.537C1172.81 352.379 1150.08 378.086 1120.72 397.082C1104.7 407.42 1082.76 416.436 1068.08 402.977C1054.8 390.783 1056.29 363.686 1076.62 342.737C1078.77 340.544 1081.33 342.376 1080.93 344.348C1079.02 353.826 1081.37 363.249 1088.63 369.856C1097.5 377.723 1110.19 378.618 1121.06 373.368C1133.88 367.078 1141.41 354.936 1143.6 341.153C1147.01 319.768 1130.38 300.905 1109.58 299.395C1092.69 298.222 1076.48 304.042 1060.7 316.949C1052.78 323.448 1048.28 328.254 1041.44 337.895C1039.77 340.263 1037.21 340.506 1037.29 337.001C1038.08 309.623 1026.64 294.223 1003.78 293.717C986.039 293.304 967.082 302.828 952.307 314.493C936.111 327.371 921.951 344.44 906.776 360.476C904.888 362.452 903.237 362.359 902.709 358.527C902.252 340.39 897.641 322.817 889.163 310.345C886.163 306.004 879.855 303.852 874.55 306.789C872.101 308.118 863.57 311.997 857.374 316.946C854.291 319.457 853.099 323.088 854.447 327.749C862.638 354.843 860.834 385.653 849.736 411.677C839.543 435.507 819.726 457.007 796.439 464.279C781.098 469.092 765.144 466.735 755.277 453.269C741.721 434.679 747.194 402.359 767.394 375.516C785.231 351.887 811.016 336.872 836.745 327.205C839.775 326.049 840.397 324.126 839.543 321.579C838.142 317.383 835.919 311.691 835.002 309.084C832.643 302.87 826.031 301.854 817.969 302.726C799.277 304.88 782.417 311.222 765.761 320.049C722.148 343.175 700.277 387.941 690.688 411.886C686.077 423.383 682.129 430.565 677.027 436.928C670.151 445.485 661.527 453.269 645.738 466.996C644.314 468.255 643.25 470.883 644.448 473.321C646.059 476.625 654.267 488.097 656.582 489.122C659.155 490.374 662.139 488.628 663.33 487.776C674.377 480.362 687.587 468.618 694.056 460.649C696.322 457.92 698.65 459.066 699.851 463.209C705.887 484.528 721.692 501.932 743.54 509.21C783.533 522.567 825.022 503.233 856.329 469.585C876.232 448.2 883.414 434.444 891.035 425.095C903.957 409.234 929.457 373.757 959.823 350.978C970.961 342.583 984.144 336.176 990.77 340.428C996.089 343.834 997.809 351.774 989.274 367.143C958.313 423.124 912.752 488.902 904.397 504.856C902.873 507.625 904.199 509.798 907.126 509.798C923.325 509.722 939.39 509.758 954.098 509.758C956.547 509.642 957.646 508.538 958.871 506.827C982.631 469.997 1004.99 434.939 1028.96 398.7C1030.31 396.566 1031.54 398.218 1031.6 399.152C1032.09 407.56 1034.18 419.065 1039.22 426.617C1048.28 440.582 1061.12 446.58 1075.36 446.669C1086.69 446.798 1092.42 445.092 1104.64 440.576C1114.58 436.925 1122.56 432.128 1128.69 427.794C1132.27 425.336 1132.89 429.454 1132.8 430.085C1127.31 459.323 1134.09 493.966 1163.45 508.331C1198.56 525.474 1237.15 501.379 1259.35 479.623C1261.52 477.526 1263.86 477.747 1264.08 482.264C1264.55 490.569 1268.34 500.429 1275.28 507.327C1293.88 525.815 1331.43 518.489 1369.1 489.614C1393.29 471.127 1418.6 445.009 1441.47 417.347C1442.32 416.283 1442.95 414.551 1441.31 412.817C1437.83 409.209 1432.79 405.077 1429.34 401.896C1427.76 400.574 1425.46 400.956 1424.12 401.951C1400.69 424.02 1379.6 449.184 1349.11 470C1338.82 477.103 1322.44 482.837 1315.07 472.975C1312.21 469.149 1312.53 463.843 1315.36 456.895C1324.26 434.935 1465 222.771 1472.31 210.253C1473.56 208.079 1472.24 206.48 1469.47 206.48V206.48ZM1272.25 339.13C1275.94 339.098 1279.39 339.799 1282.53 341.296C1299.86 349.486 1294.33 369.359 1286.58 384.962C1286 386.168 1285.96 387.192 1286.27 388.18C1286.55 389.805 1288.69 391.375 1290.79 392.122C1291.52 392.393 1291.93 392.921 1291.1 394.626C1285.11 407.325 1279.61 414.648 1272.11 425.679C1265.22 435.875 1257.44 443.83 1248.03 451.478C1233.84 463.111 1214.12 475.774 1197.82 467.261C1190.58 463.537 1187.46 453.513 1187.6 445.389C1187.98 422.554 1198.21 399.107 1217.15 376.067C1235.91 353.194 1256.29 339.268 1272.25 339.13V339.13Z" fill="white"></path></svg>