<svg xmlns="http://www.w3.org/2000/svg" width="2231" height="323" viewBox="0 0 2231 323" fill="none"><path fill-rule="evenodd" clip-rule="evenodd" d="M2020.61 59.6818H1888.99C1866.89 60.9868 1860.72 66.4573 1860.72 93.2395V167.07H2020.61V59.6818ZM2090.69 0.560495V322.5H2020.61V229.959H1860.72V322.5H1790.64V70.113C1790.64 25.5192 1808.73 0.560495 1860.72 0.560495H2090.69ZM1720.57 70.0525V244.279C1720.57 299.745 1689.37 322.439 1650.48 322.439H1429.43V0.5H1650.48C1710.18 0.5 1720.57 38.4047 1720.57 70.0525V70.0525ZM1649.65 89.4283C1649.65 71.7896 1638.88 59.6213 1620.03 59.6213H1499.52V260.777L1620.03 260.769C1647.49 259.377 1649.65 242.94 1649.65 229.899V89.4283ZM0.859375 0.5H70.9404V127.394H227.736V0.5H297.817V322.431H227.736V191.052H70.9404V322.431H0.859375V0.5V0.5ZM417.927 0.5L505.783 132.112L592.584 0.5H677.68L540.789 206.323V322.439H470.7V206.306L332.857 0.5H417.927ZM1071.07 0.5H1296.91C1329.09 0.5 1360.26 5.01123 1359.35 70.0525V322.439H1289.27V93.179C1289.27 65.4548 1285.93 59.6213 1264.15 59.6213H1141.17V322.439H1071.07V0.5ZM2230.86 0.560495V322.5H2160.76V0.560495H2230.86ZM712.729 322.439H938.55C983.447 322.439 1001.91 309.468 1001 244.824V0.5H930.917V230.322C930.917 257.874 927.585 261.218 905.802 261.218H782.819L782.81 0.5H712.729V322.439Z" fill="white"></path></svg>