<svg xmlns="http://www.w3.org/2000/svg" width="1368" height="323" viewBox="0 0 1368 323" fill="none"><path d="M793.913 285.406C793.913 288.003 794.734 289.507 796.237 289.507C797.467 289.37 798.561 288.823 799.518 288.14L1225.57 11.6234C1232.77 6.59155 1241.39 4.00421 1250.17 4.24232H1343.8C1358.15 4.24232 1367.86 13.8104 1367.86 28.1624V206.948C1367.86 228.545 1363.08 241.12 1343.94 252.601L1230.35 320.945C1229.22 321.731 1227.9 322.202 1226.53 322.311C1225.16 322.311 1223.79 321.218 1223.79 317.254V108.671C1223.79 106.21 1223.11 104.57 1221.47 104.57C1220.27 104.708 1219.13 105.182 1218.19 105.937L906.816 308.233C899.709 313.017 891.371 315.614 882.896 315.477H676.5C662.011 315.477 652.443 305.909 652.443 291.42V33.7666C652.443 31.853 651.623 30.076 649.983 30.076C648.786 30.2279 647.653 30.7002 646.702 31.4429L441.263 154.734C439.212 156.101 438.666 157.058 438.666 158.014C438.666 158.835 439.076 159.655 440.443 161.158L587.244 307.823C589.157 309.736 590.524 311.24 590.524 312.88C590.524 314.247 588.337 315.34 585.74 315.34H453.154C442.766 315.34 434.702 313.837 429.098 308.233L340.115 219.387C339.778 218.983 339.361 218.654 338.89 218.418C338.42 218.183 337.906 218.048 337.381 218.02C336.416 218.064 335.477 218.346 334.647 218.84L185.933 308.233C176.911 313.7 170.76 315.204 161.876 315.204H25.0529C10.4274 315.34 0.859375 305.636 0.859375 291.284V115.915C0.859375 94.1819 5.6434 81.7435 24.9162 70.2618L139.186 1.64528C140.082 1.05819 141.122 0.727331 142.193 0.688477C143.97 0.688477 144.927 2.4654 144.927 6.4293V241.256C144.927 243.717 145.474 244.81 147.25 244.81C148.481 244.674 149.574 244.127 150.668 243.443L536.67 11.2133C544.051 6.15593 553.072 3.69558 562.093 4.10564H769.857C784.209 4.10564 793.913 13.6737 793.913 28.0257L793.777 285.406H793.913Z" fill="white"></path></svg>