<svg xmlns="http://www.w3.org/2000/svg" width="2604" height="179" viewBox="0 0 2604 179" fill="none"><path d="M2295.11 33.9435V72.9483H2603.52V106.19H2295.11V145.195H2603.52V178.336H2255.88V0.802007H2603.52V33.9435H2295.11ZM2170.32 72.6839H1932.02V0.5H1892.85V177.997H1932.02V111.726H2170.31V177.997H2209.48V0.5H2170.31L2170.32 72.6839ZM1523.79 39.9704V139.055C1523.76 144.22 1524.75 149.34 1526.71 154.122C1528.67 158.904 1531.56 163.253 1535.22 166.918C1538.87 170.584 1543.22 173.494 1548 175.482C1552.79 177.47 1557.93 178.495 1563.11 178.5L1847.13 178.211V139.206H1568.42C1567.12 139.179 1565.88 138.673 1564.93 137.785C1563.98 136.897 1563.4 135.691 1563.29 134.399V45.2927C1563.49 43.7497 1564.25 42.3339 1565.43 41.3185C1566.62 40.3031 1568.14 39.7601 1569.7 39.7942H1847.13V0.789454H1563.58C1553.09 0.749264 1543 4.85558 1535.54 12.2077C1528.08 19.5597 1523.86 29.5573 1523.79 40.008V39.9704ZM1437.46 72.8853L1187.27 72.9859C1186.43 73.0354 1185.59 72.9141 1184.79 72.6294C1184 72.3446 1183.27 71.9023 1182.65 71.3294C1182.04 70.7564 1181.54 70.0647 1181.2 69.2962C1180.86 68.5277 1180.68 67.6984 1180.67 66.8585V40.2598C1180.67 39.4131 1180.85 38.575 1181.18 37.7957C1181.51 37.0164 1182 36.312 1182.61 35.7246C1183.22 35.1372 1183.95 34.6789 1184.74 34.3772C1185.54 34.0755 1186.38 33.9365 1187.23 33.9687H1471.19V0.814681H1180.02C1169.64 0.937472 1159.73 5.15629 1152.48 12.5449C1145.22 19.9335 1141.21 29.8879 1141.31 40.222V66.8333C1141.31 77.2948 1145.49 87.3279 1152.92 94.7253C1160.35 102.123 1170.42 106.278 1180.93 106.278L1431.12 106.19C1431.96 106.157 1432.79 106.29 1433.58 106.581C1434.37 106.873 1435.08 107.317 1435.7 107.889C1436.31 108.461 1436.8 109.148 1437.14 109.91C1437.48 110.673 1437.67 111.495 1437.69 112.33V139.042C1437.68 139.882 1437.51 140.712 1437.17 141.481C1436.83 142.251 1436.34 142.943 1435.72 143.517C1435.11 144.09 1434.38 144.533 1433.59 144.817C1432.79 145.101 1431.95 145.221 1431.11 145.17H1146.68V178.311H1437.47C1447.95 178.331 1458.01 174.207 1465.43 166.846C1472.86 159.484 1477.04 149.488 1477.06 139.055V112.343C1477.03 101.896 1472.84 91.8875 1465.42 84.5003C1458.01 77.1132 1447.95 72.947 1437.46 72.9105V72.8853ZM1095.96 177.393V177.858H1056.54V170.875C1056.54 160.417 1052.37 150.387 1044.94 142.992C1037.51 135.597 1027.44 131.443 1016.94 131.443H798.426V178.135H759.254V0.651004H1056.2C1061.37 0.644391 1066.49 1.65173 1071.26 3.61543C1076.04 5.57913 1080.38 8.46071 1084.04 12.0956C1087.7 15.7306 1090.6 20.0477 1092.59 24.8002C1094.57 29.5528 1095.59 34.6479 1095.6 39.7942V78.2705C1095.66 88.4562 1091.74 98.2662 1084.66 105.622C1077.59 112.978 1067.91 117.302 1057.69 117.678C1069.14 122.951 1078.83 131.38 1085.61 141.968C1092.39 152.556 1095.99 164.859 1095.96 177.418V177.393ZM1056.27 46.5382C1056.26 44.7709 1055.55 43.0794 1054.3 41.8226C1053.05 40.5658 1051.36 39.8427 1049.59 39.8068L798.413 39.7188V92.3877H1050.31C1051.95 92.2657 1053.48 91.5233 1054.58 90.3133C1055.69 89.1033 1056.28 87.5176 1056.25 85.8827L1056.27 46.5382ZM711.92 39.8697V138.954C711.947 144.111 710.948 149.222 708.981 153.993C707.014 158.764 704.118 163.099 700.46 166.75C696.802 170.4 692.454 173.294 687.668 175.263C682.881 177.232 677.751 178.238 672.572 178.223H421.812C416.617 178.26 411.465 177.276 406.652 175.327C401.84 173.379 397.46 170.505 393.764 166.869C390.068 163.233 387.128 158.907 385.113 154.139C383.099 149.371 382.048 144.253 382.021 139.08V40.008C382.072 29.5442 386.292 19.5285 393.756 12.1625C401.22 4.7965 411.316 0.682962 421.824 0.726445H673.191C683.527 0.842588 693.398 5.02228 700.653 12.3544C707.907 19.6866 711.957 29.5769 711.92 39.8697ZM672.837 46.5382C672.785 44.7543 672.041 43.0597 670.762 41.8096C669.483 40.5594 667.768 39.8506 665.976 39.8319H427.877C426.316 39.7978 424.797 40.3409 423.614 41.3563C422.431 42.3717 421.667 43.7875 421.471 45.3304V134.437C421.571 135.731 422.153 136.94 423.102 137.829C424.05 138.718 425.298 139.222 426.601 139.244H666.582C668.264 139.149 669.848 138.427 671.019 137.222C672.19 136.016 672.862 134.415 672.9 132.739L672.837 46.5382ZM335.951 39.8697V92.2115C335.957 97.3755 334.939 102.49 332.955 107.261C330.97 112.032 328.058 116.365 324.387 120.012C320.715 123.658 316.356 126.547 311.559 128.511C306.763 130.474 301.624 131.475 296.438 131.455H39.6889V178.186H0.517578V0.688785H296.438C301.623 0.662266 306.762 1.65602 311.56 3.61301C316.358 5.57001 320.721 8.45163 324.397 12.0924C328.073 15.7331 330.991 20.0613 332.982 24.8282C334.974 29.5951 336 34.7068 336.001 39.8697H335.951ZM296.691 46.5634C296.678 44.7951 295.972 43.1017 294.723 41.8442C293.475 40.5867 291.782 39.8647 290.007 39.8319L39.6889 39.7565V92.4254H290.777C292.424 92.3279 293.967 91.5928 295.077 90.3773C296.187 89.1617 296.775 87.5622 296.716 85.9205L296.691 46.5634Z" fill="white"></path></svg>