<svg xmlns="http://www.w3.org/2000/svg" width="1840" height="407" viewBox="0 0 1840 407" fill="none"><path d="M1085.05 107.109C1120.92 107.109 1148.65 115.163 1168.22 131.271C1187.8 147.391 1197.78 171.003 1198.14 202.132H1148.19C1147.82 165.148 1126.4 146.656 1083.95 146.656C1066.38 146.656 1052.47 150.223 1042.23 157.363C1031.98 164.497 1026.86 174.116 1026.86 186.197C1026.86 194.263 1028.77 200.847 1032.62 205.968C1036.47 211.1 1041.49 215.306 1047.72 218.598C1053.93 221.908 1061.26 224.555 1069.68 226.562C1078.1 228.594 1087.06 230.506 1096.57 232.334C1109.02 234.903 1121.84 237.747 1135.01 240.848C1148.19 243.961 1159.98 248.627 1170.41 254.853C1180.86 261.079 1189.45 269.503 1196.22 280.126C1203 290.749 1206.38 304.838 1206.38 322.415C1206.38 335.237 1203.45 346.852 1197.58 357.284C1191.73 367.728 1183.68 376.606 1173.44 383.931C1163.2 391.263 1151.01 396.933 1136.92 400.96C1122.84 404.992 1107.55 406.994 1091.09 406.994C1051.56 406.994 1021.17 398.402 999.957 381.183C979.437 364.555 968.702 341.075 967.668 310.789H1018.76C1019.41 329.304 1025.72 343.369 1037.84 352.899C1050.64 362.972 1068.77 367.997 1092.18 367.997C1111.58 367.997 1126.5 364.43 1136.94 357.284C1147.36 350.144 1152.58 339.623 1152.58 325.702C1152.58 316.919 1150.56 309.874 1146.54 304.557C1142.51 299.263 1137.11 294.866 1130.34 291.383C1123.56 287.905 1115.8 285.151 1107 283.137C1098.22 281.13 1089.07 279.206 1079.55 277.372C1067.04 275.159 1054.59 272.593 1042.23 269.676C1029.78 266.761 1018.52 262.268 1008.46 256.233C998.398 250.181 990.154 241.852 983.762 231.241C977.346 220.618 974.144 206.714 974.144 189.501C974.144 177.408 976.802 166.331 982.107 156.264C987.412 146.196 994.921 137.503 1004.62 130.178C1014.31 122.853 1025.94 117.171 1039.48 113.15C1053.03 109.117 1068.21 107.109 1085.05 107.109V107.109ZM818.783 107.109C863.061 107.109 895.546 121.58 916.234 150.486C936.909 179.422 947.262 220.253 947.262 272.98H735.878C736.601 286.902 739.164 299.616 743.566 311.147C747.957 322.69 753.901 332.573 761.404 340.818C768.652 348.865 777.424 355.396 787.211 360.032C796.901 364.615 807.606 366.903 819.326 366.903C837.63 366.903 853.27 362.691 866.269 354.273C879.25 345.848 890.702 330.738 893.802 310.789H947.244C940.953 345.717 925.553 368.092 901.95 383.651C878.336 399.209 850.247 407 817.678 407C774.116 407 740.824 393.724 717.771 367.172C694.706 340.627 683.171 303.93 683.171 257.046C683.171 235.823 686.277 216.041 692.502 197.734C698.727 179.422 707.777 163.499 719.683 149.942C731.508 136.445 746.117 125.67 762.503 118.36C779.152 110.861 797.916 107.109 818.777 107.109H818.783ZM419.396 107.109C440.627 107.109 459.75 110.772 476.775 118.091C493.789 125.416 508.245 135.758 520.145 149.124C532.033 162.489 541.191 178.328 547.589 196.635C553.993 214.948 557.207 235.077 557.207 257.046C557.207 279.021 553.993 299.251 547.589 317.749C541.179 336.235 532.039 352.068 520.139 365.26C508.251 378.435 493.693 388.687 476.494 396.012C459.29 403.326 440.072 407 418.859 407C397.998 407 379.139 403.325 362.305 396.006C345.464 388.687 331.097 378.429 319.203 365.26C307.315 352.068 298.253 336.235 292.034 317.749C285.81 299.263 282.697 279.021 282.697 257.046C282.697 235.077 285.899 214.948 292.315 196.641C298.707 178.328 307.764 162.489 319.484 149.124C331.193 135.758 345.56 125.416 362.579 118.091C379.599 110.772 398.542 107.109 419.39 107.109H419.396ZM1517.06 107.109C1543.77 107.109 1564.63 111.142 1579.63 119.19C1594.65 127.25 1605.8 137.497 1613.13 149.942C1620.44 162.4 1624.93 176.219 1626.58 191.413C1628.2 206.097 1629.03 220.858 1629.06 235.632V313.071C1629.06 329.549 1629.5 344.755 1630.42 358.658C1631.27 372.158 1633.2 385.569 1636.19 398.761H1588.98C1588.09 393.752 1587.36 388.717 1586.78 383.663C1586.04 377.61 1585.49 369.831 1585.12 360.313C1573.06 376.433 1559.14 387.869 1543.41 394.638C1527.67 401.414 1509.55 404.807 1489.05 404.807C1457.57 404.807 1433.33 396.837 1416.31 380.908C1399.3 364.98 1390.78 344.385 1390.78 319.111C1390.78 303.738 1393.81 290.833 1399.85 280.395C1405.8 270.043 1414.07 261.206 1424 254.572C1434.06 247.809 1445.69 242.491 1458.86 238.644C1472.18 234.774 1485.75 231.839 1499.48 229.861C1513.39 227.853 1527.31 226.294 1541.21 225.2C1555.12 224.101 1567.92 222.816 1579.64 221.347V211.458C1579.64 190.236 1574.7 173.841 1564.82 162.304C1554.93 150.773 1539.02 145.007 1517.06 145.007C1497.3 145.007 1481.38 149.859 1469.3 159.556C1457.22 169.265 1451.18 183.634 1451.18 202.675H1401.22C1401.22 188.031 1404.04 174.851 1409.72 163.135C1415.33 151.488 1423.5 141.256 1433.62 133.201C1443.85 124.956 1456.03 118.551 1470.12 113.974C1484.2 109.392 1499.85 107.103 1517.06 107.103V107.109ZM1313.27 46.6986V115.343H1374.77V157.082H1313.27V298.248C1313.27 308.13 1313.55 317.008 1314.1 324.883C1314.64 332.758 1316.02 339.342 1318.21 344.653C1320.41 349.971 1323.8 353.992 1328.37 356.746C1332.94 359.489 1339.25 360.863 1347.31 360.863C1351.33 360.863 1355.63 360.779 1360.21 360.582C1364.78 360.403 1369.99 359.578 1375.85 358.109V398.761C1360.85 402.053 1346.94 403.696 1334.13 403.696C1323.15 403.696 1313.18 402.334 1304.2 399.579C1295.24 396.837 1287.74 392.362 1281.7 386.136C1275.66 379.893 1271 371.486 1267.71 360.863C1264.4 350.252 1262.76 337.245 1262.76 321.866V157.082H1210.61V115.343H1262.76V46.6927H1313.27V46.6986ZM1808.02 112.05C1818.63 112.05 1829.24 113.15 1839.86 115.337V159.825C1834.02 158.798 1828.16 157.881 1822.29 157.076C1817.02 156.364 1811.7 155.999 1806.38 155.983C1791.01 155.983 1778.46 158.642 1768.76 163.947C1759.19 169.144 1751.29 176.956 1745.98 186.472C1740.5 196.169 1736.66 207.981 1734.45 221.902C1732.26 235.823 1731.17 251.382 1731.17 268.583V398.755H1680.65V115.343H1728.41V157.082C1739.39 139.875 1751.47 128.075 1764.64 121.664C1777.83 115.259 1792.28 112.044 1808.01 112.044V112.05L1808.02 112.05ZM645.309 0.00597473V398.755H594.806V0H645.309V0.00597473ZM121.296 0.00597473C138.125 0.00597473 155.7 0.740869 174.004 2.19871C192.301 3.66252 210.235 8.78288 227.81 17.5777C245.373 27.0955 258.629 40.9151 267.613 59.0485C276.574 77.1699 281.061 97.5856 281.061 120.29C281.061 144.452 276.198 165.041 266.508 182.069C256.807 199.097 243.724 212.57 227.26 222.446C215.91 229.048 201.095 233.9 182.785 237C164.481 240.113 142.88 241.679 118.011 241.679H54.3179V398.755H0.517578V0H121.296V0.00597473ZM1579.63 260.35C1569.01 261.814 1555.85 263.009 1540.1 263.917C1524.73 264.781 1509.47 267.081 1494.53 270.788C1479.89 274.444 1467.44 280.031 1457.21 287.541C1446.95 295.039 1441.84 305.937 1441.84 320.223C1441.84 334.132 1447.05 345.562 1457.47 354.542C1467.92 363.522 1482.27 367.997 1500.57 367.997C1510.81 367.997 1520.7 366.73 1530.22 364.149C1539.67 361.635 1548.34 356.824 1555.47 350.144C1562.79 343.381 1568.65 334.042 1573.04 322.135C1577.44 310.239 1579.63 294.95 1579.63 276.278V260.35H1579.63ZM419.396 147.75C406.577 147.75 394.969 150.319 384.545 155.433C374.097 160.571 365.226 167.89 357.914 177.408C350.59 186.926 344.915 198.38 340.888 211.739C336.856 225.105 334.855 240.03 334.855 256.508C334.855 272.98 336.772 287.995 340.62 301.54C344.455 315.09 350.034 326.717 357.364 336.42C364.676 346.123 373.553 353.628 383.99 358.939C394.426 364.245 406.033 366.903 418.841 366.903C432.031 366.903 444.003 364.245 454.815 358.939C465.476 353.735 474.778 346.119 481.984 336.695C489.296 327.183 494.971 315.742 498.998 302.352C503.03 289.011 505.037 274.074 505.037 257.595C505.037 241.117 503.018 226.21 498.998 212.839C494.965 199.473 489.213 187.936 481.715 178.233C474.206 168.53 465.24 161.025 454.815 155.714C444.379 150.408 432.575 147.75 419.39 147.75H419.402H419.396ZM816.59 147.75C794.995 147.75 777.235 154.621 763.322 168.345C749.415 182.075 740.633 203.225 736.977 231.784H893.444C890.51 203.225 882.093 182.075 868.186 168.345C854.279 154.621 837.075 147.75 816.578 147.75H816.59ZM123.489 43.9264H54.3179V197.746H123.501C137.402 197.746 150.031 197.101 161.375 195.822C172.725 194.538 181.495 192.435 187.731 189.507C200.169 183.281 209.596 173.943 215.994 161.486C222.409 149.046 225.611 135.316 225.611 120.296C225.611 105.287 222.409 91.6407 215.994 79.3746C209.584 67.1144 200.169 57.8595 187.731 51.6398C181.495 48.3417 172.725 46.2446 161.375 45.3304C150.031 44.4103 137.402 43.9443 123.501 43.9443L123.489 43.9264Z" fill="white"></path></svg>