<svg xmlns="http://www.w3.org/2000/svg" width="1622" height="567" viewBox="0 0 1622 567" fill="none"><path fill-rule="evenodd" clip-rule="evenodd" d="M1338.2 0.000406059C1274.38 -0.102621 1212.42 21.4271 1162.41 61.0759C1112.41 21.4245 1050.44 -0.105537 986.621 0.000406059C922.808 -0.0983468 860.845 21.431 810.841 61.0759C760.841 21.4226 698.875 -0.107824 635.06 0.000406059C571.247 -0.0983468 509.284 21.431 459.28 61.0759C409.277 21.4297 347.313 -0.0998043 283.5 0.000406059C126.903 0.000406059 0 126.894 0 283.5C0 440.087 126.894 567 283.5 567C347.313 567.098 409.276 545.568 459.28 505.924C509.283 545.57 571.247 567.1 635.06 567C698.875 567.106 760.841 545.576 810.841 505.924C860.845 545.569 922.808 567.098 986.621 567C1050.44 567.105 1112.41 545.575 1162.41 505.924C1212.41 545.575 1274.38 567.105 1338.2 567C1494.8 567 1621.69 440.097 1621.69 283.5C1621.69 126.903 1494.8 0.000406059 1338.2 0.000406059ZM412.894 459.612C376.77 485.965 331.639 502.049 283.5 502.049C162.696 502.049 64.9418 404.304 64.9418 283.5C64.9418 162.696 162.696 64.9422 283.5 64.9422C331.639 64.9422 376.742 81.0346 412.894 107.397C373.062 157.439 351.436 219.541 351.57 283.5C351.6 347.434 373.207 409.487 412.894 459.612ZM459.289 413.356C431.429 375.802 416.43 330.26 416.521 283.5C416.403 236.736 431.405 191.186 459.289 153.644C487.168 191.189 502.169 236.737 502.058 283.5C502.146 330.26 487.147 375.8 459.289 413.356ZM764.464 459.612C726.932 487.244 681.52 502.097 634.913 501.984C588.402 502.079 543.093 487.224 505.666 459.612C545.357 409.493 566.965 347.441 566.991 283.509C567.124 219.55 545.498 157.448 505.666 107.406C543.089 79.786 588.401 64.9281 634.913 65.0252C683.402 65.0252 728.201 80.7116 764.464 107.406C724.632 157.448 703.006 219.55 703.14 283.509C703.167 347.441 724.775 409.492 764.464 459.612ZM810.841 413.356C782.98 375.802 767.981 330.26 768.072 283.5C767.959 236.736 782.961 191.188 810.841 153.644C838.726 191.186 853.731 236.735 853.619 283.5C853.708 330.261 838.705 375.803 810.841 413.356ZM1116.02 459.612C1079.76 486.316 1034.96 501.984 986.483 501.984C938.002 501.984 893.49 486.288 857.226 459.612C896.921 409.495 918.53 347.442 918.551 283.509C918.684 219.55 897.058 157.448 857.226 107.406C893.49 80.7208 938.002 65.0252 986.483 65.0252C1034.96 65.0252 1079.76 80.7116 1116.02 107.406C1076.2 157.451 1054.57 219.551 1054.7 283.509C1054.73 347.44 1076.34 409.49 1116.02 459.612ZM1162.42 413.356C1134.56 375.802 1119.56 330.26 1119.65 283.5C1119.53 236.735 1134.53 191.184 1162.42 153.644C1190.3 191.189 1205.3 236.737 1205.19 283.5C1205.27 330.259 1190.27 375.798 1162.42 413.356ZM1338.2 502.049C1290.04 502.049 1244.92 485.965 1208.81 459.612C1248.49 409.491 1270.1 347.441 1270.13 283.509C1270.26 219.551 1248.63 157.451 1208.81 107.406C1244.96 81.053 1290.05 64.9514 1338.2 64.9514C1458.99 64.9514 1556.76 162.705 1556.76 283.509C1556.76 404.295 1458.99 502.049 1338.2 502.049Z" fill="white"></path></svg>