<svg xmlns="http://www.w3.org/2000/svg" width="2323" height="365" viewBox="0 0 2323 365" fill="none"><path d="M273.92 146.722C273.773 140.558 273.626 140.265 269.517 140.412C267.169 140.558 263.206 140.999 260.858 141.292C258.363 141.439 252.346 142.026 247.209 142.466L238.11 143.2C238.697 161.398 239.284 163.747 241.045 163.747C242.219 163.747 248.236 161.986 254.254 159.931L265.261 155.968C264.527 142.613 264.82 141.732 267.462 141.732C269.957 141.732 270.397 142.76 270.397 147.603C270.397 151.272 269.664 153.473 268.49 153.473C267.609 153.473 267.022 153.767 267.462 154.06C267.902 154.501 269.517 154.501 271.131 154.06C273.479 153.473 274.066 152.153 273.92 146.722Z" fill="#A7A7A7"></path><path d="M233.267 153.914C233.12 148.63 232.386 143.934 231.506 143.64C230.625 143.347 230.038 147.309 230.038 153.473C230.038 160.665 230.625 163.747 231.799 163.747C233.267 163.747 233.56 160.958 233.267 153.914Z" fill="#A7A7A7"></path><path d="M137.872 212.031L137.432 203.666L119.674 209.83C102.209 215.7 101.915 215.847 101.475 220.69C100.888 225.093 101.182 225.386 104.557 224.653C106.612 224.212 114.537 223.332 122.462 222.745C130.24 222.158 136.991 221.424 137.432 220.984C137.872 220.543 138.166 216.581 137.872 212.031Z" fill="#A7A7A7"></path><path d="M313.838 137.476C313.985 136.596 313.692 136.009 313.104 136.155C312.664 136.155 307.968 136.889 302.684 137.476C297.401 138.063 288.742 139.091 283.165 139.824L273.332 140.998C273.332 151.125 273.772 151.859 275.974 151.125C277.295 150.685 282.138 149.364 286.541 148.19C290.944 147.016 298.869 144.521 304.152 142.613C309.435 140.705 313.838 138.357 313.838 137.476Z" fill="#A5A5A5"></path><path d="M270.397 147.603C270.397 142.76 269.957 141.732 267.462 141.732C264.967 141.732 264.527 142.76 264.527 148.336C264.527 152.006 264.82 154.941 265.26 154.941C265.701 154.941 267.021 154.647 268.196 154.207C269.663 153.718 270.397 151.516 270.397 147.603Z" fill="#A5A5A5"></path><path d="M230.038 153.913C230.038 144.961 229.744 143.934 227.102 143.787C225.545 143.645 217.298 144.186 208.681 144.752L207.73 144.814C198.484 145.548 191.146 146.722 191.146 147.603C191.146 148.336 193.054 153.033 195.549 157.876C198.777 164.187 199.365 166.828 198.19 167.415C197.163 167.709 187.77 170.057 177.204 172.405C166.784 174.9 154.015 177.982 149.172 179.45L140.073 182.092C143.448 190.017 145.356 194.126 146.53 196.327C148.585 200.29 148.438 200.437 143.448 202.198C138.312 204.106 138.312 204.253 138.312 212.178V220.249C154.749 219.809 166.196 219.369 174.268 218.782C182.34 218.342 190.412 217.608 192.32 217.167L195.549 216.58C188.798 202.932 186.89 198.676 187.183 198.235C187.33 197.795 197.75 195.3 210.225 192.512C222.7 189.723 235.908 186.641 239.577 185.614C243.246 184.586 246.768 183.412 247.355 182.972C248.089 182.532 246.768 177.982 244.42 172.846C242.219 167.856 239.871 163.6 239.284 163.746C238.55 163.746 238.403 162.132 238.843 160.077C239.284 158.023 239.137 153.473 238.55 149.804C237.767 145.401 236.642 143.2 235.174 143.2C233.413 143.2 232.973 145.108 233.413 153.473C233.56 160.958 233.266 163.746 231.945 163.746C230.625 163.746 230.038 160.811 230.038 153.913Z" fill="#A5A5A5"></path><path d="M101.181 220.543C101.328 218.342 100.741 216.58 99.7136 216.58C98.6863 216.727 96.6316 217.461 95.0173 218.488C93.4029 219.516 91.9353 221.424 91.7885 222.744C91.3482 224.799 92.3756 225.239 96.1914 224.946C100.154 224.652 100.888 224.065 101.181 220.543Z" fill="#A5A5A5"></path><path d="M89.8806 223.185C89.8806 222.011 89.0001 220.983 88.1195 221.13C87.0922 221.13 84.5972 221.717 82.6893 222.451C80.6347 223.185 79.1671 224.506 79.3138 225.386C79.4606 226.12 80.9282 226.854 82.5426 226.854C84.1569 226.854 86.5051 226.56 87.6792 226.12C88.8533 225.68 89.8806 224.359 89.8806 223.185Z" fill="#A5A5A5"></path><path fill-rule="evenodd" clip-rule="evenodd" d="M95.0186 0.98807L297.549 0.841309L307.822 8.61966C313.399 12.729 323.379 21.5346 329.837 28.1389C336.294 34.5964 345.393 45.1632 349.943 51.6207C354.492 57.9314 361.977 70.1126 366.38 78.6248C370.783 87.1369 377.094 101.96 380.322 111.646C383.551 121.332 387.367 135.568 388.835 143.2C390.596 153.326 391.33 164.48 391.33 184.293C391.33 206.894 390.743 214.085 387.954 226.854C386.193 235.366 382.964 247.547 380.91 254.004C378.855 260.462 374.305 272.056 370.636 279.688C367.114 287.319 359.776 300.234 354.346 308.306C348.916 316.378 339.229 328.559 332.625 335.457C326.021 342.355 315.894 351.747 299.017 364.809H94.2848L82.1036 355.563C75.4993 350.427 65.226 341.034 59.3556 334.576C53.4851 328.266 44.8262 317.405 40.1299 310.508C35.4335 303.61 28.389 291.722 24.5732 284.091C20.7574 276.459 15.474 263.544 12.6855 255.472C10.0438 247.4 6.81506 235.806 5.64097 229.789C4.46688 223.772 2.70575 210.857 1.67842 201.17C0.504329 188.255 0.504329 178.863 1.67842 165.948C2.55899 156.261 4.17336 143.346 5.49421 137.329C6.6683 131.312 9.75029 120.011 12.2452 112.38C14.7402 104.748 19.5833 92.5671 23.1056 85.229C26.4811 77.891 33.5256 65.7098 38.6623 58.0782C43.7989 50.4466 53.9254 37.9719 61.2635 30.3403C68.4548 22.8555 79.1684 13.1693 84.7453 8.76642L95.0186 0.98807ZM94.7251 43.2553C89.1481 47.9517 81.0763 56.3171 76.5267 61.894C71.9771 67.4709 65.9599 75.6895 63.1714 80.2391C60.2362 84.642 55.8333 92.5671 53.1916 97.8505C50.5499 102.987 46.2938 113.994 43.5054 122.066C40.8637 130.138 37.6349 142.906 36.3141 150.685C35.14 158.316 34.1127 173.139 34.1127 183.706C34.1127 194.273 35.14 208.508 36.3141 215.993C37.6349 223.185 39.9831 233.751 41.7442 239.475C43.3586 245.052 47.1744 255.325 50.1096 262.223C53.0449 268.974 59.3556 280.568 64.052 287.906C69.4821 296.418 78.2878 306.692 88.5611 316.818L104.558 332.669H287.276C302.099 320.341 309.437 313.296 313.106 308.893C316.775 304.637 322.792 296.712 326.461 291.575C330.13 286.292 336.001 276.312 339.376 269.561C342.752 262.663 347.595 251.069 349.943 243.878C352.291 236.54 355.226 224.652 356.547 217.461C358.015 209.242 358.895 196.034 358.895 182.972C358.895 168.589 358.162 157.289 356.4 148.483C354.933 141.145 352.144 129.991 350.09 123.534C348.182 117.076 343.192 105.189 339.229 97.1167C335.267 89.0448 327.782 76.7169 322.645 69.9659C317.509 63.0681 307.822 52.3545 301.071 46.0438L288.743 34.5964L104.705 34.7432L94.7251 43.2553ZM2286.9 43.4021H2292.03C2296.88 43.4021 2297.32 43.8424 2300.25 51.9142C2302.01 56.4638 2303.92 61.0134 2304.51 61.7472C2305.1 62.6278 2307.15 58.812 2309.06 53.3818C2312.43 43.8424 2312.73 43.4021 2322.12 43.4021V59.5458C2322.12 74.809 2321.97 75.6895 2319.19 75.6895C2316.54 75.6895 2316.25 74.6622 2315.52 54.4092L2311.7 64.6825C2308.91 71.8738 2307 75.1025 2305.1 75.396C2302.89 75.6895 2301.43 73.6349 2294.38 55.8768L2294.24 65.8565C2294.24 75.396 2294.09 75.6895 2286.9 75.6895V43.4021ZM1908.99 37.6784C1915.45 37.6784 1927.04 38.5589 1934.67 39.733C1942.3 40.7604 1953.9 43.6956 1960.35 46.0438C1966.81 48.392 1975.91 52.648 1980.46 55.5833C1985.16 58.6652 1991.91 64.2422 1995.58 68.058C1999.25 71.8738 2004.53 79.2118 2007.17 84.4952C2009.81 89.7786 2012.75 97.7037 2013.63 102.107C2014.36 106.509 2015.54 113.407 2016.86 124.121H1958.89L1957.71 117.517C1957.13 113.994 1955.36 108.417 1953.9 105.482C1952.28 102.4 1949.2 98.144 1946.85 95.9426C1944.65 93.7412 1939.37 90.5124 1935.4 88.7513C1929.97 86.4031 1924.1 85.3758 1913.39 84.7887C1901.94 84.2017 1896.95 84.642 1890.64 86.6966C1886.24 88.0175 1880.37 90.806 1877.73 92.7138C1875.09 94.6217 1872 98.2908 1870.83 100.639C1869.51 103.134 1868.63 109.004 1868.63 113.847C1868.63 121.039 1869.22 123.387 1872 126.762C1873.91 128.964 1879.34 132.486 1884.19 134.688C1888.88 136.889 1905.76 142.026 1921.46 146.135C1937.17 150.244 1955.66 155.381 1962.56 157.436C1969.45 159.49 1979.58 163.6 1985.16 166.535C1990.88 169.47 1999.39 175.487 2004.09 179.89C2009.96 185.467 2014.22 191.191 2017.74 198.235C2020.82 204.693 2023.17 212.471 2024.2 219.222C2025.08 225.973 2025.08 233.605 2024.34 240.502C2023.46 246.373 2021.55 254.738 2019.79 259.141C2018.18 263.544 2014.66 270.442 2012.01 274.404C2009.37 278.367 2003.94 284.678 1999.83 288.347C1995.87 292.162 1987.95 297.593 1982.22 300.528C1976.64 303.463 1966.08 307.719 1958.89 309.921C1946.41 313.736 1944.06 314.03 1916.33 314.177C1891.82 314.177 1885.21 313.736 1876.7 311.388C1870.98 309.921 1862.46 306.985 1857.62 305.077C1852.78 303.023 1844.56 298.62 1839.28 295.098C1833.99 291.722 1826.8 285.705 1823.28 281.742C1819.76 277.78 1815.06 271.322 1812.71 267.213C1810.36 263.25 1807.14 255.912 1805.67 251.069C1804.05 246.226 1802.29 237.567 1800.38 220.983H1829.3C1853.81 220.983 1858.5 221.423 1859.09 223.185C1859.53 224.359 1859.82 226.854 1859.82 228.762C1859.82 230.523 1860.7 234.926 1861.88 238.595C1863.2 242.264 1866.57 248.134 1869.66 251.656C1872.88 255.325 1878.75 259.728 1884.04 262.223C1889.17 264.718 1897.69 267.213 1904.58 268.24C1913.54 269.561 1919.26 269.414 1928.8 268.094C1935.7 267.213 1944.21 265.012 1947.88 263.397C1951.55 261.783 1956.39 258.701 1958.59 256.499C1960.94 254.298 1963.73 250.776 1964.9 248.574C1965.93 246.373 1966.96 241.089 1966.96 236.833C1966.96 231.11 1966.08 227.734 1963.73 224.065C1961.82 221.277 1957.71 217.167 1954.48 214.966C1951.25 212.618 1942.6 208.802 1935.4 206.454C1928.07 203.959 1913.98 199.996 1903.85 197.501C1893.72 195.006 1880.22 191.337 1873.77 189.283C1867.31 187.228 1857.33 183.412 1851.75 180.624C1846.03 177.982 1837.96 173.139 1833.7 169.764C1829.44 166.535 1823.87 160.371 1821.08 156.115C1818.44 151.859 1814.91 144.667 1813.45 140.264C1811.39 134.394 1810.66 128.377 1810.8 117.517C1810.95 106.363 1811.69 100.786 1814.18 94.0347C1815.94 89.1916 1819.46 82.0003 1822.11 78.0377C1824.6 74.0752 1830.47 67.6177 1834.87 63.5084C1839.28 59.5458 1847.94 53.8221 1853.95 50.7401C1859.97 47.8049 1867.6 44.4294 1870.83 43.4021C1874.06 42.3747 1881.25 40.7604 1886.97 39.733C1892.55 38.7057 1902.53 37.8251 1908.99 37.6784V37.6784ZM2156.28 38.2654C2167.87 38.7057 2179.18 40.0266 2187.1 41.9345C2194 43.6956 2204.86 47.6581 2211.32 50.7401C2217.77 53.8221 2226.29 59.399 2230.39 62.9213C2234.36 66.4436 2239.93 72.9011 2242.87 77.3039C2245.66 81.7068 2249.47 89.3383 2251.24 94.475C2253.14 99.4649 2255.05 108.271 2256.81 124.121H2198.84L2197.37 116.489C2196.49 112.233 2194.29 106.069 2192.53 102.987C2190.77 99.7584 2186.66 95.3556 2183.43 93.0074C2180.2 90.806 2173.6 88.0175 2168.76 86.6966C2163.91 85.5226 2154.96 84.4952 2148.94 84.4952C2142.93 84.4952 2134.41 85.5226 2130.16 86.6966C2125.9 87.8707 2120.03 91.0995 2117.1 93.7412C2114.16 96.3829 2110.78 100.639 2109.76 103.134C2108.58 105.776 2107.7 110.619 2107.7 113.847C2107.85 117.076 2108.88 121.773 2110.05 124.121C2111.22 126.616 2115.04 130.138 2118.42 132.046C2121.94 134.101 2131.33 137.623 2139.4 140.118C2147.47 142.466 2165.82 147.603 2180.06 151.272C2194.44 154.941 2210.29 159.637 2215.28 161.692C2220.42 163.893 2229.07 168.589 2234.65 172.405C2241.4 176.808 2247.13 182.238 2251.24 187.962C2254.76 192.805 2259.16 200.437 2260.77 204.839C2263.42 211.444 2264 216.14 2264 229.789C2264.15 242.557 2263.42 248.721 2261.36 254.738C2259.89 259.141 2256.81 266.186 2254.61 270.148C2252.26 274.258 2247.57 280.568 2244.04 284.237C2240.52 287.906 2234.06 293.336 2229.66 296.272C2225.26 299.354 2216.6 303.757 2210.58 306.105C2204.56 308.453 2193.56 311.388 2186.37 312.856C2175.95 314.764 2167.87 315.057 2148.94 314.617C2128.25 313.883 2122.82 313.296 2111.52 309.921C2104.18 307.719 2094.05 303.61 2088.77 300.968C2083.49 298.18 2076.15 293.336 2072.48 290.401C2068.81 287.319 2063.23 281.889 2060.15 278.22C2057.07 274.551 2052.37 267.066 2049.73 261.343C2047.24 255.766 2044.3 247.694 2043.42 243.438C2042.54 239.182 2041.81 232.431 2041.81 220.983H2099.04V225.093C2099.04 227.294 2100.07 232.724 2101.39 237.127C2103.15 243.584 2105.5 246.96 2112.4 253.711C2119.59 260.755 2122.82 262.663 2131.62 265.452C2139.7 267.947 2145.86 268.681 2157.01 268.681C2167.87 268.534 2174.48 267.8 2182.26 265.305C2189.89 262.957 2194.59 260.609 2198.69 256.646C2202.36 252.977 2205.01 248.868 2206.03 244.465C2207.06 240.649 2207.35 235.513 2206.77 231.99C2206.03 228.321 2203.68 224.065 2200.31 220.249C2197.23 217.021 2190.92 212.618 2186.22 210.416C2181.38 208.215 2163.62 202.785 2146.74 198.382C2129.72 193.979 2112.25 189.136 2107.85 187.522C2103.45 186.054 2094.79 182.238 2088.77 179.156C2082.75 176.074 2074.53 170.497 2070.57 166.828C2066.61 163.159 2061.77 157.582 2059.86 154.647C2057.95 151.565 2055.16 145.108 2053.55 140.264C2051.49 134.394 2050.61 127.496 2050.61 119.424C2050.61 112.673 2051.64 103.281 2052.81 98.4375C2054.13 93.5944 2056.92 86.4031 2059.12 82.2938C2061.33 78.3312 2066.76 71.4335 2071.16 66.8839C2075.56 62.3343 2083.78 56.1703 2089.5 52.9416C2095.08 49.8596 2104.77 45.6035 2110.78 43.6956C2116.8 41.7877 2125.46 39.733 2129.86 38.9992C2134.27 38.2654 2146.15 37.9719 2156.28 38.2654V38.2654ZM535.302 44.1359L536.036 144.667H641.704V43.4021H700.409V309.04H641.704V196.034H536.036V309.04H475.864L475.571 177.248C475.424 104.748 475.864 44.8697 476.598 44.4294C477.332 43.8424 490.834 43.5488 535.302 44.1359ZM808.278 44.1359L809.012 137.329C809.599 203.078 810.333 232.137 811.507 235.659C812.534 238.448 815.323 243.584 817.671 247.107C820.166 250.482 825.009 255.179 828.385 257.38C831.907 259.581 838.658 262.37 843.501 263.397C849.078 264.718 857.737 265.158 867.717 264.718C879.751 264.131 884.741 263.25 891.052 260.462C895.454 258.554 901.472 254.151 904.554 250.776C907.782 247.253 911.305 241.089 912.772 236.833C915.121 229.936 915.267 219.662 915.854 43.4021H974.559L974.265 139.971C973.972 227.441 973.825 237.274 971.477 245.199C970.009 250.042 966.34 258.994 963.405 265.012C959.589 272.79 955.04 279.101 947.702 286.292C940.363 293.63 934.199 298.18 926.421 301.995C920.404 305.077 910.424 308.893 904.407 310.654C895.601 313.149 888.116 313.883 867.717 314.47C845.556 315.057 839.979 314.764 827.357 312.269C817.084 310.067 808.425 307.132 798.739 302.289C788.319 297.152 782.448 293.043 775.991 286.292C770.561 280.862 764.984 273.23 761.608 266.479C758.673 260.462 754.71 250.189 752.949 243.731C749.721 232.284 749.721 229.789 749.28 139.677C749.134 88.8981 749.28 46.4841 749.574 45.4567C750.161 43.6956 755.591 43.4021 808.278 44.1359V44.1359ZM1106.94 43.4021L1118.38 77.5974C1124.84 96.3829 1138.49 136.595 1148.91 167.122C1159.33 197.648 1168.14 222.598 1168.58 222.598C1169.02 222.451 1182.23 182.385 1226.69 44.1359L1309.03 43.4021L1309.47 309.04H1253.7L1252.96 126.469L1189.86 309.04H1166.67C1154.05 309.04 1143.63 308.893 1143.63 308.746C1143.63 308.453 1130.71 271.322 1114.86 226.12C1099.01 180.917 1084.92 140.705 1083.46 136.595C1080.67 129.404 1080.67 130.285 1080.52 309.04H1023.28L1022.99 177.248C1022.84 104.748 1023.28 45.0164 1024.02 44.4294C1024.6 43.8424 1043.54 43.4021 1106.94 43.4021V43.4021ZM1359.37 43.4021H1418.07V259.141H1547.22V309.04H1359.37V43.4021ZM1776.9 44.1359V94.0347L1638.21 94.7685V149.07H1765.9V196.034H1638.21V259.141H1780.57V309.04H1578.04L1577.75 177.248C1577.6 104.748 1578.04 44.8697 1578.77 44.4294C1579.36 43.8424 1624.27 43.5488 1776.9 44.1359ZM2269.29 43.4021C2281.47 43.4021 2282.5 43.6956 2282.5 46.3373C2282.5 48.6855 2281.47 49.2725 2272.22 49.2725V62.481C2272.22 75.6895 2272.22 75.6895 2268.55 75.6895C2264.88 75.6895 2264.88 75.6895 2264.88 49.2725H2260.48C2256.96 49.2725 2256.08 48.6855 2256.08 46.3373C2256.08 43.6956 2256.96 43.4021 2269.29 43.4021ZM104.558 94.7685H155.778L155.191 177.689L148.293 179.156C144.477 180.037 141.102 181.211 140.661 181.798C140.074 182.385 141.395 186.641 143.45 191.337C145.504 195.887 146.972 199.85 146.679 199.996C146.532 200.143 137.139 203.665 125.838 207.775C114.538 211.884 105.145 215.259 104.852 215.113C104.705 215.113 104.558 188.109 104.558 154.941V94.7685ZM236.643 94.7685H288.01V116.783C288.01 138.503 287.863 138.797 284.634 139.531C282.873 139.824 275.095 140.558 267.463 140.998C259.831 141.439 249.705 142.319 236.643 143.934V94.7685ZM287.569 147.749C287.716 147.749 288.01 175.634 288.01 272.35H236.643V185.76L243.247 185.027C246.77 184.586 249.852 183.999 249.852 183.559C249.852 183.119 247.797 178.716 241.046 164.48L264.088 156.115C276.856 151.565 287.423 147.749 287.569 147.749ZM154.017 219.809C155.484 219.662 155.925 225.68 155.925 272.35H104.558V248.134C104.558 224.065 104.558 223.918 107.787 223.772C109.548 223.772 120.408 222.891 131.709 221.864C143.01 220.836 152.989 219.809 154.017 219.809Z" fill="white"></path></svg>