<svg xmlns="http://www.w3.org/2000/svg" width="1695" height="321" viewBox="0 0 1695 321" fill="none"><path d="M1085.28 139.305C1085.6 122.665 1085.6 95.9454 1085.28 80.1054C1085.12 64.2654 1084.96 78.0254 1084.96 110.505C1084.96 142.985 1085.12 155.945 1085.28 139.305Z" fill="white" fill-opacity="0.3"></path><path d="M1122.56 51.624C1129.12 51.464 1123.36 51.144 1109.76 51.144C1096.16 51.144 1090.72 51.464 1097.76 51.624C1104.8 51.944 1116 51.944 1122.56 51.624Z" fill="white" fill-opacity="0.5"></path><path d="M1122.56 170.024C1129.12 169.864 1123.36 169.544 1109.76 169.544C1096.16 169.544 1090.72 169.864 1097.76 170.024C1104.8 170.344 1116 170.344 1122.56 170.024Z" fill="white" fill-opacity="0.5"></path><path d="M787.36 317.225C793.6 317.065 788.16 316.745 775.36 316.745C762.56 316.745 757.6 317.065 764.16 317.225C770.72 317.545 781.12 317.545 787.36 317.225Z" fill="white" fill-opacity="0.7"></path><path d="M976.96 317.225C983.52 317.065 978.88 316.745 966.56 316.745C954.24 316.745 948.8 316.905 954.56 317.225C960.32 317.545 970.4 317.545 976.96 317.225Z" fill="white" fill-opacity="0.7"></path><path d="M547.68 239.305C548 196.585 548 127.145 547.68 84.905C547.52 42.665 547.36 77.545 547.36 162.505C547.36 247.465 547.52 282.025 547.68 239.305Z" fill="white" fill-opacity="0.7"></path><path d="M1073.76 317.225C1079.84 316.905 1075.2 316.745 1063.36 316.745C1051.52 316.745 1046.4 316.905 1052.16 317.225C1057.92 317.545 1067.52 317.545 1073.76 317.225Z" fill="white" fill-opacity="0.7"></path><path d="M1237.76 317.225C1244.32 317.065 1238.24 316.745 1224.16 316.745C1210.08 316.745 1204.64 317.065 1212.16 317.225C1219.68 317.545 1231.2 317.545 1237.76 317.225Z" fill="white" fill-opacity="0.7"></path><path d="M1484.16 317.225C1490.72 317.065 1486.08 316.745 1473.76 316.745C1461.44 316.745 1456 316.905 1461.76 317.225C1467.52 317.545 1477.6 317.545 1484.16 317.225Z" fill="white" fill-opacity="0.7"></path><path d="M1676.16 317.225C1682.72 317.065 1678.08 316.745 1665.76 316.745C1653.44 316.745 1648 316.905 1653.76 317.225C1659.52 317.545 1669.6 317.545 1676.16 317.225Z" fill="white" fill-opacity="0.7"></path><path d="M1112.16 8.42385C1125.44 8.26385 1114.88 7.94385 1088.96 7.94385C1063.04 7.94385 1052.16 8.26385 1064.96 8.42385C1077.76 8.74385 1098.88 8.74385 1112.16 8.42385Z" fill="white" fill-opacity="0.3"></path><path d="M1372.96 8.10385L1329.92 7.94385L1351.04 8.42385L1372.16 8.90385L1372.96 316.104V8.10385Z" fill="white" fill-opacity="0.3"></path><path d="M1085.76 213.704L1131.36 212.744C1091.36 212.104 1085.6 212.584 1085.12 214.184C1084.8 215.144 1084.64 238.824 1084.8 266.504L1084.96 316.904L1085.76 213.704Z" fill="white" fill-opacity="0.3"></path><path d="M684.16 274.024C702.24 273.864 688.16 273.704 652.96 273.704C617.76 273.704 603.04 273.864 620.16 274.024C637.28 274.344 666.08 274.344 684.16 274.024Z" fill="white" fill-opacity="0.3"></path><path fill-rule="evenodd" clip-rule="evenodd" d="M568.96 7.94385C580.8 7.94385 585.6 8.10385 579.36 8.42385C573.12 8.74385 563.52 8.74385 557.76 8.42385C552 8.10385 557.12 7.94385 568.96 7.94385ZM1042.08 84.9039C1042.4 127.144 1042.4 196.584 1042.08 239.304C1041.92 282.024 1041.76 247.464 1041.76 162.504C1041.76 77.5439 1041.92 42.6639 1042.08 84.9039ZM1329.76 8.90385L1330.56 316.104L1371.36 317.064L1329.76 316.904V8.90385ZM296.64 132.904C296.8 148.744 296.8 174.984 296.64 191.304C296.32 207.624 296.16 194.664 296.16 162.504C296.16 130.344 296.32 117.064 296.64 132.904ZM716.8 273.704L717.44 293.704C717.6 304.744 717.44 314.664 716.96 315.784C716.32 317.224 697.92 317.544 545.76 316.904L716.16 316.104L716.8 273.704Z" fill="white" fill-opacity="0.5"></path><path d="M987.841 315.304C898.88 74.6641 872.48 3.624 871.84 2.184C870.88 0.423993 851.36 51.624 812.16 157.704L753.76 315.944L796.96 316.104C852.48 171.624 869.12 129.064 869.76 128.104C870.56 127.144 871.68 127.784 872.64 129.704C873.6 131.464 889.76 173.544 908.96 223.304C928 273.064 944 314.184 944.64 314.984C945.28 315.624 955.2 315.944 966.88 315.784L987.841 315.304Z" fill="white"></path><path fill-rule="evenodd" clip-rule="evenodd" d="M1569.92 1.06446C1570.08 1.38446 1596.32 71.9445 1628.16 157.705C1660 243.465 1686.4 314.185 1686.72 314.985C1687.04 315.625 1677.44 316.105 1643.36 316.105L1607.52 222.985C1587.84 171.625 1571.2 129.065 1570.56 128.105C1569.76 127.145 1568.64 127.785 1567.68 129.705C1566.72 131.465 1550.4 173.545 1531.36 223.305C1512.32 273.065 1496.32 314.185 1495.68 314.985C1495.04 315.625 1485.12 315.945 1452.32 315.305L1509.92 160.105C1541.44 74.8245 1567.84 3.94446 1568.48 2.66446C1569.12 1.38446 1569.76 0.744457 1569.92 1.06446V1.06446ZM548.16 8.90447H589.76V274.505H716.16V316.105H548.16V8.90447ZM1042.72 8.74447L1095.04 9.22447C1144.32 9.86447 1148 10.0245 1158.56 13.5445C1164.8 15.4645 1174.08 19.6245 1179.36 22.5045C1184.64 25.3845 1192.96 31.3045 1197.76 35.6245C1202.56 40.1045 1209.6 48.2645 1213.28 53.8645C1217.12 59.4645 1221.92 69.2245 1224.16 75.3045C1226.24 81.5445 1228.8 91.9446 1229.6 98.5046C1230.56 105.705 1230.56 114.985 1229.76 121.705C1228.96 127.945 1227.2 136.585 1225.76 140.905C1224.16 145.385 1220.64 153.545 1217.6 159.305C1214.72 165.065 1208.8 173.705 1204.48 178.505C1200.16 183.305 1192.16 190.505 1186.4 194.345C1180.8 198.185 1176.32 201.865 1176.64 202.665C1176.8 203.465 1192.16 228.105 1210.72 257.385C1229.28 286.505 1245.12 311.785 1245.92 313.385C1247.2 315.945 1245.6 316.105 1198.56 316.105L1132.64 212.905H1084.96L1084.16 316.105H1042.56L1042.72 8.74447ZM1085.76 168.905C1144 168.105 1144.16 168.105 1154.56 163.145C1161.12 159.945 1167.36 155.305 1171.68 150.345C1175.52 146.025 1180.16 139.305 1181.92 135.305C1183.68 131.465 1185.92 124.265 1186.72 119.305C1187.84 113.225 1187.84 107.625 1186.56 100.905C1185.6 95.6246 1182.4 86.9846 1179.52 81.7045C1176.32 76.1045 1170.88 69.3845 1165.92 65.3845C1160.48 60.7445 1154.08 57.5445 1146.88 55.3045C1138.08 52.7445 1131.68 52.1045 1110.88 52.1045H1085.76V168.905ZM1330.56 8.90447H1372.16V316.105H1330.56V8.90447ZM1653.92 10.6645C1655.04 10.6645 1653.76 12.4245 1650.88 14.6645C1648 16.7445 1644.64 20.7445 1643.36 23.3045C1641.92 26.0245 1640.8 31.9445 1640.8 36.5845C1640.64 44.4245 1640.48 44.5845 1639.2 39.7845C1638.24 36.4245 1638.24 32.2645 1639.52 27.7845C1640.48 23.9445 1643.52 18.6645 1646.56 15.7845C1649.44 12.9045 1652.8 10.6645 1653.92 10.6645V10.6645ZM1655.36 18.5045H1664.16C1670.72 18.5045 1673.6 19.3045 1676.16 21.7045C1677.92 23.4645 1679.36 26.0245 1679.36 27.3045C1679.36 28.7445 1677.44 31.6245 1675.36 33.7045C1671.52 37.5445 1671.52 38.0245 1673.76 41.3845C1675.04 43.3045 1676.16 46.0245 1676.16 47.3045C1676.16 48.7445 1673.92 46.6645 1671.36 42.9845C1667.84 38.0245 1665.6 36.2645 1662.88 36.5845C1659.84 36.9045 1659.2 38.0245 1658.88 43.7845C1658.72 47.4645 1657.76 50.5045 1656.96 50.5045C1656 50.5045 1655.36 44.1045 1655.36 34.5045V18.5045ZM1664.96 32.9045C1667.52 32.9045 1670.72 32.5845 1672.16 32.1045C1673.44 31.7845 1674.56 29.5445 1674.56 27.3045C1674.56 25.2245 1673.44 22.9845 1672.16 22.5045C1670.72 22.1845 1667.52 21.7045 1664.96 21.7045C1660.48 21.7045 1660.16 22.1845 1660.16 27.3045C1660.16 32.5845 1660.48 32.9045 1664.96 32.9045Z" fill="white"></path><path d="M464.48 192.105C464.8 175.465 464.8 148.745 464.48 132.905C464.32 117.065 464.16 130.825 464.16 163.305C464.16 195.945 464.32 208.745 464.48 192.105Z" fill="white" fill-opacity="0.7"></path><path d="M253.28 192.905C253.6 175.785 253.6 147.945 253.28 131.305C253.12 114.665 252.96 128.585 252.96 162.505C252.96 196.425 253.12 210.025 253.28 192.905Z" fill="white" fill-opacity="0.3"></path><path fill-rule="evenodd" clip-rule="evenodd" d="M99.3595 6.34371C114.08 6.82371 119.2 7.62371 131.36 11.9437C139.2 14.6637 149.76 19.3037 154.56 22.0237C159.36 24.9037 168.48 32.4237 174.72 38.5037C180.96 44.5838 186.88 51.1438 187.84 52.9038C189.44 55.7838 188.16 57.3838 157.76 80.9038L147.84 70.8238C142.24 65.2238 134.56 58.8238 130.56 56.5838C126.56 54.3438 119.04 51.1438 113.76 49.7038C106.88 47.6238 100.48 47.1438 91.3595 47.6238C82.2395 48.1038 76.4795 49.3838 71.3595 51.9438C67.3595 54.0238 61.7595 57.8638 58.8795 60.7438C55.8395 63.4638 51.9995 68.5838 50.2395 72.1038C48.1595 76.1038 46.8795 81.7038 46.8795 87.3038C46.8795 92.2638 47.9995 98.1838 49.2795 100.904C50.7195 103.464 55.0395 108.744 59.1995 112.424C63.1995 116.264 71.0395 121.544 76.6395 124.264C82.0795 127.144 96.3195 133.064 108.16 137.704C120 142.344 135.52 148.904 142.56 152.584C149.6 156.104 159.68 162.184 164.96 166.184C170.24 170.024 177.28 177.224 180.64 181.864C183.84 186.664 188.48 195.464 190.72 201.704C193.44 208.904 195.04 217.704 195.68 226.504C196.32 236.264 195.68 243.304 193.76 251.304C192.32 257.544 188.96 266.824 186.08 272.104C183.36 277.384 176.96 285.864 171.84 290.824C165.44 297.224 158.4 302.184 149.44 306.504C142.08 310.024 130.4 314.504 123.36 316.424C115.52 318.504 104.32 320.104 94.5595 320.584C82.2395 321.064 75.3595 320.424 64.6395 317.864C56.7995 315.944 45.7595 312.104 39.8395 309.064C33.7595 306.184 25.4395 300.904 20.9594 297.384C16.6394 294.024 10.0794 287.304 0.159424 274.184L4.15943 271.144C6.39943 269.544 14.2394 264.104 35.0395 249.704L40.7995 256.264C43.9995 259.944 49.1195 264.744 52.1595 266.984C55.1995 269.224 60.9595 272.264 64.9595 273.704C68.9595 275.144 76.7995 276.904 82.5595 277.544C88.3195 278.344 98.3995 278.184 104.96 277.384C111.52 276.584 120.64 274.344 124.96 272.424C129.44 270.344 136.16 265.864 140.16 262.184C144.48 258.504 148.96 252.264 151.2 247.144C154.24 240.264 154.72 236.744 154.24 229.704C153.76 224.904 152 218.024 150.08 214.504C148.32 210.984 143.68 205.064 139.52 201.224C135.52 197.544 127.68 192.264 122.24 189.544C116.64 186.664 102.08 180.584 89.7595 175.784C77.4395 170.984 61.5995 164.104 54.5595 160.744C47.5195 157.224 37.9195 151.464 33.4395 147.944C28.7995 144.584 22.3994 138.344 19.3594 134.024C16.3194 129.864 12.3194 122.664 10.5594 118.024C8.79943 113.544 6.71943 104.584 5.75943 98.5038C4.69276 91.0371 4.69276 83.4105 5.75943 75.6238C6.87943 67.9438 9.43943 59.9438 13.5994 51.3038C17.7594 42.9838 22.5595 35.9437 27.6795 31.1437C31.8395 27.1437 38.5595 22.0237 42.5595 19.6237C46.5595 17.3837 54.0795 13.8637 59.3595 11.9437C64.6395 10.1837 71.8395 7.94371 75.3595 7.14371C78.8795 6.50371 89.5995 6.02371 99.3595 6.34371V6.34371ZM361.76 6.34371C375.04 6.66371 382.56 7.94371 392.16 10.9837C399.52 13.3837 410.08 18.5037 416.96 22.9837C423.52 27.3037 432.16 34.5037 436.16 38.9837C440.16 43.4638 445.76 50.9838 448.48 55.6238C451.36 60.2638 455.68 69.5438 462.56 88.1038L463.04 157.704C463.52 218.504 463.2 228.744 460.8 239.304C459.36 245.864 455.2 257.064 451.68 264.104C446.88 273.384 441.76 280.264 433.12 289.064C423.68 298.504 417.92 302.664 407.36 307.784C399.84 311.464 389.44 315.624 384.16 317.224C378.88 318.664 368.48 320.104 360.96 320.584C351.36 320.904 344.8 320.424 338.56 318.504C333.76 317.064 325.44 314.344 320.16 312.424C314.88 310.504 305.12 305.384 298.56 300.904C292 296.584 283.2 288.584 278.72 283.304C274.4 278.024 268 267.944 264.64 260.904C261.28 253.864 257.44 242.664 256 236.104C253.92 226.024 253.6 213.224 254.56 91.3038L258.88 78.5038C261.28 71.4638 265.92 61.3838 269.12 56.1038C272.32 50.8238 277.12 43.9438 279.84 40.9038C282.56 37.8637 288 32.5837 292 29.2237C296 26.0237 304 20.7437 309.76 17.7037C315.52 14.6637 325.6 10.8237 332.16 8.90372C341.76 6.34371 347.68 5.86371 361.76 6.34371V6.34371ZM328.96 56.1038C325.92 57.7038 321.12 60.7438 318.56 62.9838C316 65.0638 311.36 70.1838 308.48 74.3438C305.6 78.3438 301.76 86.3438 300 92.1038C297.12 101.864 296.96 106.504 297.28 166.504L297.76 230.504C305.76 247.304 311.2 255.144 315.04 258.984C318.72 262.824 325.76 267.784 330.56 270.184C335.36 272.584 344 275.304 349.76 276.264C357.44 277.544 362.4 277.544 368.96 276.264C373.76 275.304 382.08 272.424 387.36 269.864C392.96 267.144 400 261.864 404.16 257.384C408 253.224 412.8 246.024 414.88 241.704C416.96 237.224 419.36 229.064 420.32 223.304C421.28 216.904 421.76 191.304 421.44 156.104C420.8 107.944 420.32 98.0238 418.08 91.3038C416.64 86.8238 412.8 79.4638 409.76 74.8238C406.72 70.3438 400.8 63.9438 396.64 60.9038C392.32 57.8638 384.64 53.8638 379.36 52.1038C373.12 50.0238 365.92 48.9038 358.56 49.0638C352.32 49.0638 344.48 50.0238 340.96 51.1438C337.44 52.2638 332 54.5038 328.96 56.1038V56.1038ZM1690.88 24.9037C1691.84 24.9037 1693.28 26.9837 1693.92 29.7037C1695.04 33.2237 1694.56 36.7437 1692.16 42.8238C1690.4 47.4638 1687.68 52.5838 1686.08 54.0238C1684.64 55.6238 1682.88 56.4238 1682.08 56.1038C1681.44 55.6238 1682.72 53.3838 1684.96 50.8238C1687.2 48.4238 1689.6 43.6238 1690.4 40.1037C1691.2 36.5837 1691.2 31.7837 1690.56 29.2237C1689.76 26.5037 1689.92 24.9037 1690.88 24.9037V24.9037Z" fill="white"></path></svg>