<svg xmlns="http://www.w3.org/2000/svg" width="2498" height="506" viewBox="0 0 2498 506" fill="none"><path fill-rule="evenodd" clip-rule="evenodd" d="M2469.41 0.640625C2507.62 0.640625 2495.12 36.7697 2495.12 36.7697L2430.21 224.364C2425.3 140.109 2400.58 115.272 2302.48 115.272C2190.98 115.272 2175.21 158.4 2175.21 257.295C2175.21 364.059 2196.77 397.72 2302.48 397.72C2329.23 397.72 2352.57 397.141 2371.88 393.1L2345.35 469.739C2332.85 505.843 2294.66 505.843 2294.66 505.843H2089.96C2126.6 490.85 2139.96 458.347 2139.96 394.044V118.444H2073.71L2076.31 159.973H2074.2C2057.37 123.706 2026.88 115.272 1987.95 115.272C1885.41 115.272 1882.25 179.964 1882.25 264.647C1882.25 345.654 1893.28 397.72 1987.95 397.72C2021.6 397.72 2056.86 391.401 2074.2 355.108H2075.78V407.716C2075.78 455.061 2063.71 466.605 2007.42 466.605C1970.08 466.605 1955.88 460.852 1955.88 422.973H1893.8C1891.41 469.928 1906.75 493.871 1932.75 505.843H1259.86C1221.63 505.843 1234.13 469.739 1234.13 469.739L1298.51 283.618C1302.42 369.547 1328.76 397.72 1425.17 397.72C1504.08 397.72 1554.03 393.528 1554.03 306.73H1487.76C1487.76 347.756 1461.98 347.215 1425.17 347.215C1365.74 347.215 1364.17 328.295 1364.17 268.877H1554.03C1554.03 148.43 1538.8 115.272 1425.17 115.272C1394.38 115.272 1371.07 118.696 1353.19 125.582L1383.91 36.7571C1396.39 0.640625 1434.63 0.640625 1434.63 0.640625H1780.73V155.253H1778.09C1763.89 121.591 1728.66 115.272 1695.01 115.272C1600.32 115.272 1589.26 167.35 1589.26 248.345C1589.26 333.04 1592.43 397.72 1695.01 397.72C1733.92 397.72 1764.43 389.299 1781.25 353.018H1783.34L1780.73 394.561H1847V0.640625H2469.41ZM1487.76 226.781H1364.17C1364.17 177.874 1367.83 165.764 1425.17 165.764C1479.35 165.764 1487.76 169.994 1487.76 226.781ZM1714.46 347.215C1653.97 347.215 1655.55 310.935 1655.55 248.345C1655.55 178.919 1668.7 165.764 1714.46 165.764C1771.77 165.764 1779.66 189.456 1779.66 248.345C1779.66 314.095 1782.31 347.215 1714.46 347.215ZM2007.42 347.215C1948.53 347.215 1948.53 310.935 1948.53 248.345C1948.53 178.919 1961.67 165.764 2007.42 165.764C2064.74 165.764 2073.71 189.456 2073.71 248.345C2073.71 314.095 2073.71 347.215 2007.42 347.215ZM2302.48 165.764C2356.66 165.764 2365.07 169.969 2365.07 226.781H2241.47C2241.47 177.862 2245.15 165.764 2302.48 165.764ZM2365.07 306.73C2365.07 347.756 2339.29 347.215 2302.48 347.215C2243.05 347.215 2241.47 328.295 2241.47 268.877H2414.84L2401.76 306.73H2365.07Z" fill="white"></path><path fill-rule="evenodd" clip-rule="evenodd" d="M178.706 193.635C178.706 160.502 161.347 160.502 126.086 160.502C90.8637 160.502 66.6685 160.502 66.6685 196.807C66.6685 224.175 74.0328 225.207 131.89 227.825C197.111 230.998 254.955 226.264 254.955 315.681C254.955 390.368 196.041 397.72 126.086 397.72C50.8951 397.72 0.402588 397.72 0.402588 307.813H66.6685C67.7008 347.756 77.1926 352.502 126.086 352.502C165.551 352.502 188.689 353.547 188.689 315.681C188.689 291.485 187.115 279.388 120.308 278.318C18.7944 276.757 0.402588 263.073 0.402588 192.603C0.402588 116.87 55.0997 115.271 126.086 115.271C180.293 115.271 244.972 116.316 244.972 193.635H178.706ZM554.247 256.779C554.247 363.53 539.506 397.72 424.308 397.72C309.136 397.72 294.42 363.53 294.42 256.779C294.42 149.462 309.136 115.271 424.308 115.271C539.506 115.271 554.247 149.462 554.247 256.779ZM360.661 257.308C360.661 330.913 365.419 347.215 424.308 347.215C483.21 347.215 487.956 330.913 487.956 257.308C487.956 182.607 483.21 165.764 424.308 165.764C365.419 165.764 360.661 182.607 360.661 257.308ZM676.771 394.56H610.518V0.0864258H676.771V394.56ZM922.927 359.866H921.353C908.198 396.675 867.689 397.72 835.626 397.72C773.023 397.72 732.538 384.59 732.538 309.902C732.538 243.611 767.232 225.207 835.626 225.207C869.287 225.207 902.42 225.736 918.194 256.779H920.296V221.002C920.296 176.288 916.62 160.502 861.394 160.502C832.453 160.502 809.316 163.133 809.316 198.909H743.037C743.037 118.431 798.263 115.271 861.394 115.271C949.753 115.271 986.562 128.968 986.562 221.531V394.56H920.296L922.927 359.866ZM798.792 309.902C798.792 348.814 814.59 352.502 859.267 352.502C894.54 352.502 920.296 349.342 920.296 309.902C920.296 271.495 891.896 270.437 859.267 270.437C825.63 270.437 798.792 270.437 798.792 309.902ZM1047.57 118.431H1112.27L1110.68 154.736H1113.32C1126.46 124.222 1154.86 115.271 1186.95 115.271C1245.34 115.271 1259.53 149.99 1259.53 202.057V224.175H1197.48V209.937C1197.48 182.079 1194.84 165.764 1163.81 165.764C1124.36 165.764 1112.79 188.385 1113.83 224.175V394.56H1047.57V118.431Z" fill="white"></path></svg>