<svg xmlns="http://www.w3.org/2000/svg" width="2638" height="491" viewBox="0 0 2638 491" fill="none"><path fill-rule="evenodd" clip-rule="evenodd" d="M485.759 15.4122C487.954 15.0465 494.538 17.2412 499.659 19.4359C505.146 21.9963 511.73 28.5804 514.29 34.0672C517.582 41.017 519.411 57.4773 519.411 122.952L529.287 113.076C535.14 107.59 543.919 101.371 549.405 99.5423C555.258 97.3476 568.426 95.5187 578.668 95.5187C592.934 95.5187 601.347 97.7134 610.491 103.566C617.441 108.321 626.586 117.831 630.609 124.781C637.925 136.852 638.291 144.168 639.388 250.976C640.12 359.614 640.12 364.735 632.804 376.44C627.683 384.487 621.83 388.877 613.417 390.34C607.199 391.437 597.689 390.705 592.568 388.511C587.447 386.316 581.229 380.464 578.668 375.343C575.376 368.758 574.279 339.496 574.279 269.997C574.279 200.133 572.816 171.602 569.523 165.017C565.5 157.336 562.208 155.873 548.674 155.873C533.677 155.873 531.848 156.97 525.995 168.675C520.143 180.015 519.411 193.183 519.411 272.923C519.411 357.785 519.045 365.101 512.096 376.44C506.975 384.487 501.122 388.877 492.709 390.34C486.491 391.437 476.98 390.705 471.859 388.511C466.738 386.316 460.52 380.464 457.96 375.343C454.668 368.393 453.57 325.962 453.57 202.327C453.57 57.8431 454.302 37.725 459.423 30.4093C462.715 25.6542 468.933 20.5332 473.323 18.7043C477.346 16.8754 483.199 15.4122 485.393 15.4122H485.759ZM779.483 95.5187C796.675 95.5187 816.793 97.3476 824.108 99.1765C831.79 101.371 843.861 108.321 851.176 114.905C858.126 121.123 865.442 131.365 867.271 137.584C868.734 143.802 871.294 199.401 872.026 261.95C873.123 324.499 872.757 377.171 871.66 379.366C870.197 381.561 865.442 385.219 860.687 387.779C856.297 389.974 848.25 391.803 842.397 391.803C836.911 392.169 828.132 388.877 822.279 384.487C816.793 380.464 811.306 373.514 810.209 368.758C808.38 360.711 808.014 360.711 796.675 372.416C790.091 379 778.02 385.95 768.509 388.511C759.365 391.071 746.197 391.803 739.247 390.705C732.297 389.242 720.958 384.487 714.008 380.098C707.058 375.343 697.913 365.832 693.89 358.882C687.671 348.275 686.208 339.862 686.208 311.331C686.208 283.897 687.671 274.021 693.158 263.779C697.182 256.829 704.497 246.953 709.618 242.198C714.739 237.442 733.028 226.835 750.22 218.056C767.412 209.643 786.798 198.304 793.017 192.817C802.161 185.501 805.088 180.38 805.088 171.236C805.088 165.017 802.893 156.239 799.967 152.215C796.553 147.338 790.578 144.899 782.043 144.899C775.093 144.899 766.68 147.46 763.388 150.386C759.731 153.312 756.073 162.457 754.61 170.138C753.146 178.917 748.391 186.964 742.905 191.354C735.955 197.206 730.102 198.304 717.3 196.841C705.96 195.377 699.011 192.451 694.255 186.233C690.598 181.478 687.671 172.333 688.037 165.749C688.037 159.531 690.598 147.826 693.89 140.144C696.816 132.829 702.303 123.318 705.595 119.66C708.887 116.003 719.86 109.053 730.102 104.297C744.733 97.3476 754.61 95.5187 779.483 95.5187V95.5187ZM782.043 257.926C770.704 267.071 759.731 278.776 757.536 283.897C755.341 289.018 753.878 299.26 753.878 306.575C753.878 314.257 756.438 324.133 759.365 328.522C763.023 334.131 768.509 336.935 775.825 336.935C783.506 336.935 788.993 334.009 794.114 326.693C798.504 321.207 802.527 312.062 803.624 305.844C804.722 299.626 805.088 282.8 804.356 267.802L803.259 241.1L782.043 257.926ZM952.498 95.5187C960.911 95.5187 969.324 96.616 971.519 98.0792C973.714 99.9081 977.737 104.663 979.932 109.053C982.126 113.808 984.321 123.684 984.321 144.899L993.466 126.61C998.221 116.368 1005.9 105.395 1010.66 102.103C1015.05 98.4449 1024.56 95.5187 1031.51 95.5187C1040.29 95.1529 1047.24 98.0792 1052.72 103.566C1057.48 108.321 1062.23 118.563 1063.33 126.61C1064.79 135.755 1063.7 145.631 1060.4 153.678C1057.84 160.262 1050.89 168.309 1045.41 170.87C1039.92 173.796 1031.14 175.991 1026.02 175.991C1021.27 175.991 1012.85 177.454 1007.73 179.649C1002.98 181.478 996.392 189.159 993.1 196.109C989.076 205.985 987.613 225.737 987.613 287.555C987.613 343.154 986.516 368.758 983.224 375.343C980.663 380.464 974.445 386.316 969.324 388.511C964.569 390.705 955.424 391.437 949.206 390.34C943.354 389.242 934.941 384.853 930.917 380.464C923.967 373.148 923.601 367.661 923.601 241.832C923.601 118.197 923.967 110.516 930.551 103.2C935.672 97.7134 941.89 95.5187 952.498 95.5187V95.5187ZM1421.43 96.616C1453.99 97.3476 1459.84 98.445 1472.64 106.492C1481.05 111.979 1490.56 122.587 1495.32 132.097C1499.71 141.242 1504.83 160.994 1507.02 175.991C1509.22 190.988 1509.95 210.74 1508.49 219.885C1507.02 229.395 1502.64 239.637 1497.51 244.392C1489.83 252.074 1486.18 252.805 1388.15 252.805L1390.34 284.628C1391.44 305.478 1394.36 320.475 1398.39 326.693C1403.14 334.009 1407.53 336.935 1415.58 336.935C1423.26 336.935 1428.75 334.009 1434.23 326.693C1438.26 321.207 1441.55 311.331 1441.55 304.746C1441.18 296.699 1444.48 290.115 1451.43 283.165C1460.2 274.752 1463.5 273.655 1477.76 275.484C1489.1 276.947 1496.42 280.605 1501.17 286.457C1506.66 293.407 1507.76 298.894 1505.93 316.817C1504.46 331.814 1500.44 343.885 1493.49 354.859C1486.54 365.832 1477.4 374.245 1465.33 380.464C1449.96 388.145 1441.92 389.974 1417.77 389.974C1399.12 389.974 1382.29 387.779 1371.69 383.756C1362.91 380.464 1350.1 371.685 1343.52 364.369C1336.94 357.419 1329.62 344.617 1327.06 335.838C1323.89 325.596 1322.3 293.651 1322.3 240.003C1322.3 161.36 1322.67 159.165 1331.81 139.413C1336.94 128.439 1346.08 115.637 1351.93 111.613C1357.79 107.224 1367.66 102.103 1373.51 99.9081C1379.73 97.7134 1401.31 96.2503 1421.43 96.616V96.616ZM1391.44 182.575L1388.15 205.254H1441.18C1441.55 168.309 1439.72 160.994 1434.23 154.776C1429.84 150.386 1422.89 146.728 1418.14 146.728C1413.38 146.728 1406.07 149.655 1402.05 153.312C1396.92 157.336 1393.63 166.846 1391.44 182.575V182.575Z" fill="white"></path><path fill-rule="evenodd" clip-rule="evenodd" d="M1584.2 95.5196C1592.25 95.5196 1601.76 97.3485 1605.79 99.1774C1609.81 101.006 1614.93 108.322 1616.76 114.906C1620.42 126.245 1620.78 126.245 1625.17 119.295C1628.1 115.272 1636.51 107.956 1644.56 103.201C1656.63 95.8853 1662.48 94.4222 1681.5 95.8853C1701.25 97.3485 1705.64 98.8116 1717.35 110.151C1724.3 117.101 1733.08 130.269 1736 139.414C1740.39 151.484 1742.59 174.163 1743.69 223.544C1745.15 266.34 1744.05 301.455 1741.49 318.647C1738.93 333.644 1733.44 352.665 1729.05 360.712C1723.57 370.588 1715.52 377.904 1704.55 383.756C1695.4 388.146 1682.6 391.804 1676.02 391.804C1669.8 391.804 1658.09 389.243 1650.41 385.951C1643.1 383.025 1633.22 376.807 1620.78 364.37L1619.69 411.19C1618.59 457.279 1618.22 458.376 1608.35 467.155C1602.49 472.276 1593.71 475.934 1586.4 475.934C1580.18 476.3 1571.04 473.373 1566.28 469.715C1561.53 466.058 1556.4 456.547 1554.58 448.5C1552.75 440.453 1550.92 367.296 1550.92 285.727C1550.92 202.328 1552.75 131.366 1554.58 122.953C1556.77 114.906 1560.79 105.396 1564.09 101.738C1568.11 98.08 1575.79 95.5196 1584.2 95.5196V95.5196ZM1621.88 185.136C1620.78 193.184 1620.42 225.738 1621.15 257.196C1622.25 308.771 1622.98 315.355 1629.93 324.865C1635.78 332.547 1640.9 335.107 1650.05 335.107C1659.92 335.107 1663.58 332.913 1667.97 324.134C1672.36 315.355 1673.46 298.529 1673.46 243.662C1673.46 189.892 1671.99 171.602 1667.97 163.189C1663.94 155.142 1659.56 151.85 1651.14 151.119C1642 150.387 1637.97 152.216 1631.76 160.263C1627.37 165.75 1622.98 177.089 1621.88 185.136V185.136ZM1876.46 95.5196C1891.46 95.5196 1910.48 97.3485 1918.53 99.5432C1926.94 102.104 1939.38 109.785 1948.16 118.93C1958.77 129.172 1965.35 140.145 1969.37 154.045C1973.76 169.408 1975.23 190.257 1975.23 241.833C1975.23 291.945 1973.76 314.258 1969.74 327.792C1966.81 338.034 1960.59 351.933 1955.84 358.883C1950.72 366.199 1939.75 375.343 1929.14 380.464C1914.51 387.78 1905.36 389.609 1880.12 389.609C1853.79 389.975 1846.1 388.512 1831.11 380.83C1820.87 375.709 1808.43 365.833 1802.58 358.883C1797.09 351.933 1789.77 335.473 1786.48 322.305C1781.73 303.284 1781 285.361 1782.09 230.859C1783.19 170.139 1784.29 161.36 1791.97 144.9C1796.36 134.658 1802.94 123.319 1806.23 119.661C1809.53 116.003 1820.5 109.054 1830.74 104.298C1845.01 97.7143 1855.25 95.5196 1876.46 95.5196V95.5196ZM1852.32 186.965C1850.86 197.939 1850.49 231.957 1851.23 261.951C1852.32 306.576 1853.79 319.013 1858.91 327.06C1864.03 334.376 1868.42 336.936 1877.2 336.936C1884.88 337.302 1891.83 334.376 1896.58 329.255C1903.17 322.305 1903.9 315.721 1905 256.83C1905.73 221.349 1905.36 185.502 1904.26 177.089C1903.17 168.31 1898.78 158.068 1894.75 154.045C1890.73 150.021 1883.41 146.729 1878.66 146.729C1873.17 146.729 1866.59 150.753 1862.2 156.971C1857.44 162.458 1853.42 175.26 1852.32 186.965V186.965ZM2055.7 95.5196C2066.31 95.5196 2072.89 98.08 2088.62 113.809V369.857L2078.01 380.83C2070.7 388.146 2063.75 391.804 2056.06 391.804C2049.48 391.804 2040.7 388.146 2024.61 374.246L2023.51 250.246C2022.78 182.21 2023.51 122.953 2024.61 118.564C2025.7 113.809 2029.73 106.859 2033.75 102.835C2038.63 97.9581 2045.94 95.5196 2055.7 95.5196V95.5196Z" fill="white"></path><path fill-rule="evenodd" clip-rule="evenodd" d="M318.231 95.52C340.544 95.52 353.346 97.7147 363.954 102.47C372.001 106.128 383.706 114.541 389.559 121.491C395.777 128.44 403.093 141.243 405.653 150.387C408.214 159.532 409.677 173.066 408.214 180.747C407.116 188.063 402.361 197.573 397.606 201.597C392.485 206.352 384.438 208.913 374.927 208.913C364.32 208.913 358.101 206.718 352.615 200.865C348.225 196.11 343.836 185.137 342.373 175.992C341.275 166.848 337.252 156.606 333.96 152.948C330.302 149.29 324.084 146.364 320.06 146.364C316.036 146.364 309.452 150.022 305.429 154.411C298.479 161.727 298.113 167.213 298.113 241.833C298.113 316.453 298.479 321.94 305.429 329.255C309.452 333.645 316.768 337.302 321.889 337.302C327.01 337.302 332.862 335.108 335.423 332.547C337.983 329.987 340.91 319.745 342.007 309.503C343.47 299.627 346.396 286.459 348.591 280.606C351.152 274.754 355.907 268.535 359.199 267.072C362.857 265.243 370.538 263.78 376.756 263.78C383.706 263.78 391.022 267.072 396.874 272.925C401.995 278.046 407.116 286.459 408.579 292.311C409.677 297.798 408.945 311.332 406.75 322.305C404.19 333.279 397.972 349.008 392.119 357.055C386.632 365.102 374.562 375.71 365.783 380.831C351.883 388.512 344.567 389.975 318.231 389.975C292.26 389.975 284.213 388.512 269.216 380.831C259.34 375.71 248.001 366.931 243.611 360.713C239.588 354.494 234.101 342.423 231.541 333.279C228.98 324.134 226.785 304.016 226.785 260.122H123.269C25.239 260.488 19.7523 260.122 10.2419 252.807C1.82891 246.954 0 242.565 0 230.86C0 222.812 1.82891 212.936 3.65783 208.913C5.48674 204.889 12.8024 199.768 19.0207 197.939C25.9706 195.745 72.7908 194.281 226.785 194.281V182.576C226.785 175.992 229.346 161.727 232.272 151.485C235.198 140.877 242.148 126.977 248.001 120.393C253.488 114.175 264.461 105.762 272.508 102.47C282.75 97.7147 295.918 95.52 318.231 95.52V95.52ZM1151.85 95.52C1166.12 95.52 1176.36 97.7147 1185.14 103.201C1192.09 107.225 1200.87 114.541 1204.16 118.564C1208.91 124.417 1210.74 125.148 1210.38 121.125C1210.38 118.199 1213.67 111.249 1218.06 105.762C1224.28 97.3489 1228.3 95.52 1241.83 95.52C1255.37 95.52 1259.39 97.3489 1265.61 105.762C1272.92 115.272 1273.29 120.393 1272.92 272.193C1272.92 404.607 1272.19 430.577 1267.07 442.282C1264.15 449.598 1256.46 461.303 1249.88 467.887C1243.3 474.471 1230.13 482.518 1219.89 485.81C1206.72 489.834 1192.45 491.297 1168.68 489.834C1143.44 488.737 1132.46 486.542 1121.12 480.324C1113.08 475.934 1103.57 467.155 1099.91 461.303C1096.62 455.085 1093.69 445.574 1093.69 439.356C1093.69 433.138 1095.15 425.09 1097.35 421.067C1099.54 417.043 1107.22 411.922 1114.54 409.727C1125.51 406.435 1130.63 406.801 1138.32 410.459C1143.8 413.385 1151.85 421.433 1156.61 428.382C1163.19 438.259 1168.31 441.551 1177.82 442.282C1187.33 443.014 1192.45 441.551 1197.94 435.698C1204.16 429.114 1205.25 421.798 1207.08 358.884L1195.01 369.857C1188.79 376.075 1177.45 382.294 1170.51 383.391C1163.56 384.488 1150.39 384.488 1141.24 383.391C1132.1 382.294 1120.76 378.27 1115.64 374.612C1110.52 370.589 1101.74 357.786 1095.52 346.081C1084.91 324.5 1084.55 323.037 1083.45 256.464C1082.35 214.399 1083.45 179.65 1086.01 165.019C1088.57 151.851 1094.06 134.659 1098.45 126.612C1102.84 118.93 1111.98 108.688 1118.93 103.933C1128.44 97.7147 1136.85 95.52 1151.85 95.52ZM1156.61 171.603C1155.14 177.09 1154.04 210.376 1154.04 245.491C1154.04 300.724 1155.14 311.332 1160.26 319.745C1165.38 327.426 1169.41 329.255 1178.55 328.889C1186.11 328.158 1192.45 324.378 1197.57 317.55C1204.52 308.406 1205.25 301.09 1206.35 249.88C1207.45 212.571 1206.35 187.332 1203.43 177.821C1200.87 169.774 1196.48 160.264 1193.18 156.606C1189.53 152.948 1183.31 150.022 1178.92 150.387C1174.53 150.387 1168.31 152.948 1165.38 155.874C1162.09 158.8 1158.43 165.75 1156.61 171.603V171.603Z" fill="white"></path><path fill-rule="evenodd" clip-rule="evenodd" d="M2053.5 0.416504C2060.82 0.416504 2070.33 2.24542 2075.09 4.07433C2079.48 6.26903 2084.96 11.39 2087.52 16.1452C2089.72 20.5346 2092.64 27.1186 2093.74 30.7765C2094.84 34.0685 2093.74 42.4815 2091.18 49.0656C2088.62 55.2839 2082.4 63.6969 2077.28 67.3548C2072.53 70.6468 2062.28 73.5731 2054.97 73.5731C2044.36 73.5731 2038.51 71.0126 2030.09 62.5996C2021.32 53.8208 2019.12 48.6998 2019.49 36.629C2019.49 25.6555 2022.41 19.0714 2030.09 11.0242C2037.78 3.34277 2043.99 0.416504 2053.5 0.416504ZM2477.45 88.2044C2484.03 88.2044 2491.71 90.3991 2495 92.9596C2498.3 95.52 2502.69 101.007 2504.88 105.396C2507.44 110.517 2509.27 130.635 2509.27 194.281H2557.92C2584.26 194.281 2611.69 195.745 2618.27 197.939C2624.49 199.768 2631.81 204.889 2633.64 208.913C2635.47 212.936 2637.29 222.812 2637.29 230.86C2637.29 242.565 2635.47 246.954 2627.42 252.807C2618.27 259.757 2611.69 260.488 2509.27 260.122V369.857L2498.66 380.831C2492.08 387.415 2484.03 391.804 2478.54 391.804C2473.42 391.804 2465.74 390.341 2461.72 388.146C2457.69 385.952 2451.84 379.733 2448.92 373.515C2444.89 365.468 2443.43 349.373 2443.43 260.122H2333.69L2332.6 314.258C2332.23 343.887 2329.67 371.32 2327.48 375.344C2325.65 379.367 2317.97 384.854 2311.38 387.781C2302.6 391.438 2295.65 391.804 2287.97 389.609C2281.02 387.415 2274.8 381.562 2270.78 373.515C2264.93 362.176 2264.2 348.642 2264.2 264.512C2264.2 208.181 2262.73 165.75 2260.54 161.361C2257.98 155.874 2253.22 154.045 2243.35 154.045C2233.84 153.68 2227.25 156.24 2222.13 161.727C2215.18 169.042 2214.82 175.992 2212.99 268.901C2211.89 331.816 2209.69 370.589 2207.13 375.344C2204.94 379.367 2197.26 384.854 2190.67 387.781C2181.89 391.438 2174.94 391.804 2167.26 389.609C2160.31 387.415 2154.1 381.562 2150.07 373.515C2144.22 362.176 2143.49 347.544 2143.49 243.662C2143.49 174.529 2144.95 121.856 2147.15 114.541C2148.97 108.322 2154.1 101.007 2158.12 99.1779C2162.14 96.9832 2171.65 95.52 2179.33 95.52C2188.36 95.52 2195.67 98.3244 2201.28 103.933C2205.67 108.322 2209.33 115.272 2209.33 119.296C2209.33 126.246 2209.69 126.246 2215.91 118.564C2219.2 114.541 2227.98 107.225 2234.93 103.201C2244.08 97.7147 2253.95 95.52 2269.68 95.52C2285.05 95.52 2295.29 97.7147 2303.7 102.836C2309.92 106.859 2318.7 116.735 2322.72 124.783C2326.74 132.83 2331.13 151.851 2335.52 194.281H2443.43L2444.53 150.022C2445.26 106.494 2445.26 105.762 2455.5 96.9832C2461.72 91.4964 2470.13 88.2044 2477.45 88.2044Z" fill="white"></path></svg>