<svg xmlns="http://www.w3.org/2000/svg" width="2082" height="887" viewBox="0 0 2082 887" fill="none"><path d="M753.758 619.792C743.329 619.792 737.463 622.399 732.248 649.772L730.293 659.548C719.864 636.737 695.096 619.792 663.157 619.792C601.236 619.792 556.262 679.751 556.262 738.407C556.262 790.545 590.807 818.569 631.871 818.569C659.898 818.569 686.622 805.534 704.873 778.162C697.703 815.962 700.31 819.221 712.694 819.221C726.382 819.221 725.078 800.972 730.945 776.207C730.945 776.207 762.231 631.524 762.883 628.265C763.535 625.006 762.883 623.051 760.928 621.748C758.972 620.444 756.365 619.792 753.758 619.792V619.792ZM716.605 722.765C708.783 761.869 674.238 795.759 634.478 795.759C605.799 795.759 581.682 774.903 581.682 737.755C581.682 692.786 611.665 642.603 661.202 642.603C693.792 642.603 713.998 661.503 723.123 691.482L716.605 722.765ZM1939.38 619.792C1928.96 619.792 1923.74 622.399 1917.88 649.772L1915.92 659.548C1905.49 636.737 1880.72 619.792 1848.78 619.792C1786.86 619.792 1741.89 679.751 1741.89 738.407C1741.89 790.545 1776.43 818.569 1817.5 818.569C1845.53 818.569 1872.25 805.534 1890.5 778.162C1883.33 815.962 1885.94 819.221 1898.32 819.221C1912.01 819.221 1910.71 800.972 1916.57 776.207C1916.57 776.207 1947.86 631.524 1948.51 628.265C1949.16 625.006 1948.51 623.051 1946.55 621.748C1944.6 620.444 1941.99 619.792 1939.38 619.792V619.792ZM1902.88 722.765C1895.06 761.869 1860.52 795.759 1820.76 795.759C1792.08 795.759 1767.96 774.903 1767.96 737.755C1767.96 692.786 1797.94 642.603 1847.48 642.603C1880.07 642.603 1900.28 661.503 1909.4 691.482L1902.88 722.765V722.765ZM1089.44 683.662C1089.44 697.348 1083.57 719.507 1077.7 741.665C1072.49 761.217 1068.58 780.117 1066.62 787.286C1064.02 799.017 1061.41 818.569 1050.33 818.569C1034.68 818.569 1035.99 810.748 1039.9 791.196C1041.85 780.117 1047.07 757.958 1052.28 737.755C1058.15 718.203 1062.06 698.651 1062.06 688.224C1062.06 660.851 1045.11 643.906 1021.65 643.906C993.621 643.906 976.674 656.289 958.423 685.617L933.003 806.186C931.048 815.962 925.182 818.569 918.664 818.569H916.056C909.538 818.569 905.627 815.962 907.583 806.186L929.092 704.517C936.914 668.672 920.619 643.906 891.288 643.906C863.912 643.906 846.314 656.289 828.063 685.617L802.643 806.186C800.687 815.962 794.821 818.569 788.303 818.569H785.696C779.178 818.569 775.267 815.962 777.223 806.186L816.331 625.006C816.331 625.006 816.982 620.444 822.849 620.444C832.626 620.444 840.447 628.265 836.537 651.075L835.885 652.379C850.876 631.524 873.689 620.444 895.85 620.444C925.833 620.444 946.691 636.737 954.513 661.503C969.504 638.041 993.621 620.444 1026.86 620.444C1063.36 619.792 1089.44 647.165 1089.44 683.662V683.662ZM1237.39 619.792C1170.26 619.792 1118.77 672.582 1118.77 741.014C1118.77 785.331 1147.45 817.917 1200.89 817.917C1231.53 817.917 1253.69 810.097 1269.98 793.152C1276.5 786.634 1278.46 782.724 1278.46 776.207C1278.46 772.296 1277.15 769.038 1274.55 767.083C1269.98 763.172 1263.47 765.779 1260.21 769.69C1245.22 785.983 1227.62 795.107 1201.55 795.107C1164.39 795.107 1144.84 772.296 1144.84 739.058C1144.84 735.148 1145.49 730.586 1145.49 726.676C1164.39 728.631 1180.04 729.282 1195.03 729.282C1279.76 729.282 1304.53 706.472 1304.53 669.324C1305.18 639.996 1279.76 619.792 1237.39 619.792V619.792ZM1193.07 707.776C1181.34 707.776 1167 707.124 1151.36 705.169C1164.39 669.324 1196.98 641.951 1236.74 641.951C1265.42 641.951 1279.11 655.637 1279.11 669.975C1279.11 689.527 1260.86 707.776 1193.07 707.776V707.776ZM1453.79 638.041C1453.79 643.906 1452.49 647.165 1449.88 649.772C1446.62 652.379 1442.06 653.03 1439.45 651.075C1434.24 647.165 1427.72 644.558 1418.6 644.558C1387.96 644.558 1367.75 683.662 1356.67 736.451L1342.33 806.186C1340.38 815.31 1336.47 818.569 1330.6 818.569H1327.34C1320.83 818.569 1314.96 815.962 1316.91 806.186L1355.37 626.961C1355.37 626.961 1356.67 619.792 1361.89 619.792C1371.67 619.792 1380.14 628.265 1375.58 650.424L1374.27 658.244C1387.31 633.479 1404.26 620.444 1427.07 620.444C1440.76 619.792 1453.14 626.961 1453.79 638.041V638.041ZM1514.41 632.175L1483.78 774.903C1479.86 791.848 1477.26 817.917 1466.18 817.917C1464.22 817.917 1460.31 817.917 1459.01 817.266C1446.62 814.659 1453.14 799.669 1458.36 774.903L1488.99 631.524C1490.95 622.399 1494.86 619.141 1500.72 619.141H1503.98C1510.5 619.792 1516.37 622.399 1514.41 632.175V632.175ZM1530.05 575.475C1530.05 585.903 1524.19 595.679 1511.8 595.679C1500.07 595.679 1494.2 591.116 1494.2 582.644C1494.2 572.216 1500.07 562.44 1512.45 562.44C1523.54 562.44 1530.05 567.003 1530.05 575.475ZM1709.3 643.906C1720.38 654.986 1724.94 667.368 1724.94 676.493C1724.94 684.965 1720.38 690.179 1715.17 691.482C1705.39 693.438 1704.74 686.268 1704.08 683.662C1696.91 660.199 1676.06 643.906 1644.77 643.906C1596.54 643.906 1563.3 686.92 1563.3 729.282C1563.3 768.386 1588.72 795.107 1628.48 795.107C1655.2 795.107 1673.45 782.724 1685.83 765.127C1687.14 763.172 1691.7 758.61 1698.22 761.869C1701.48 763.824 1704.74 767.083 1704.74 772.296C1704.74 778.162 1700.83 785.331 1692.35 793.803C1679.32 806.838 1655.2 819.221 1626.52 819.221C1576.98 819.221 1537.22 786.634 1537.22 731.889C1537.22 674.537 1584.15 621.748 1644.12 621.748C1674.75 619.792 1696.26 630.872 1709.3 643.906V643.906ZM662.505 493.357C682.059 480.323 685.318 469.244 685.318 460.119C685.318 446.433 674.238 436.657 662.505 436.006C655.336 436.006 648.166 439.264 642.951 443.826C632.523 452.95 618.183 458.816 601.888 458.816C578.423 458.816 565.387 449.04 562.78 430.792C573.86 431.443 583.637 431.443 593.414 431.443C677.497 431.443 702.265 407.981 702.265 368.878C702.265 333.033 674.89 309.571 622.746 309.571C556.262 309.571 503.466 356.495 503.466 425.578C503.466 473.154 533.449 508.999 601.236 508.999C628.612 509.651 648.818 502.482 662.505 493.357ZM619.487 356.495C635.13 356.495 642.951 363.664 642.951 372.136C642.951 383.216 629.915 391.036 587.548 391.036C582.334 391.036 577.119 391.036 570.601 390.385C580.378 370.833 597.977 356.495 619.487 356.495V356.495ZM918.012 509.651C946.039 509.651 965.593 502.482 979.281 493.357C998.835 480.323 1002.09 469.244 1002.09 460.119C1002.09 446.433 991.014 436.657 979.281 436.006C972.111 436.006 964.941 439.264 959.727 443.826C949.298 452.95 934.959 458.816 918.664 458.816C895.199 458.816 882.163 449.04 879.555 430.792C890.636 431.443 900.413 431.443 910.19 431.443C994.272 431.443 1019.04 407.981 1019.04 368.878C1019.04 333.033 991.665 309.571 939.521 309.571C873.037 309.571 820.242 356.495 820.242 425.578C820.242 473.806 850.224 509.651 918.012 509.651V509.651ZM936.262 356.495C951.905 356.495 959.727 363.664 959.727 372.136C959.727 383.216 946.691 391.036 904.324 391.036C899.109 391.036 893.895 391.036 887.377 390.385C897.154 370.833 914.753 356.495 936.262 356.495V356.495ZM713.998 450.343L752.454 270.467C757.668 243.746 773.964 235.274 793.518 235.274C813.723 235.274 831.322 243.094 825.456 270.467L786.348 452.95C782.437 471.199 784.392 480.975 792.866 485.537C796.777 487.492 798.732 492.706 793.518 497.268C788.303 503.133 777.874 508.999 758.972 508.999C715.953 508.999 707.48 482.93 713.998 450.343ZM1034.03 422.971C1034.03 362.36 1081.61 310.874 1142.88 310.874C1175.47 310.874 1197.63 320.65 1211.32 334.336C1220.45 343.46 1224.36 353.888 1224.36 363.664C1224.36 381.912 1216.54 389.733 1206.76 393.643C1195.68 398.205 1180.69 394.947 1175.47 385.171C1169.61 374.743 1159.83 367.574 1144.19 367.574C1117.46 367.574 1099.86 391.036 1099.86 416.454C1099.86 436.657 1112.9 451.647 1136.37 451.647C1148.75 451.647 1159.18 447.085 1167 437.961C1172.87 431.443 1180.69 430.14 1188.51 433.399C1197.63 436.657 1204.8 445.781 1204.8 459.468C1204.8 469.244 1200.24 478.368 1191.77 487.492C1178.73 499.875 1157.22 508.999 1129.85 508.999C1071.84 509.651 1034.03 477.716 1034.03 422.971V422.971ZM1357.33 494.009C1347.55 504.437 1331.25 509.651 1310.4 509.651C1261.51 509.651 1241.96 481.626 1251.73 435.354L1266.07 366.271H1262.16C1245.87 366.271 1235.44 360.405 1236.74 346.719C1237.39 340.853 1239.35 325.864 1246.52 318.043C1251.73 313.481 1256.95 310.874 1271.94 310.874H1278.46L1279.76 305.008C1286.93 271.77 1307.79 256.129 1329.95 256.129C1361.89 256.129 1357.98 273.726 1356.67 278.939C1355.37 284.153 1350.16 310.874 1350.16 310.874H1371.67C1389.26 310.874 1398.39 318.695 1398.39 331.078C1398.39 336.943 1395.78 351.933 1388.61 359.102C1383.4 363.664 1378.18 366.271 1363.19 366.271H1337.12L1323.43 432.095C1320.17 448.388 1326.04 455.557 1337.12 455.557C1342.33 455.557 1348.2 453.602 1352.76 450.995C1357.98 447.737 1364.5 449.04 1367.1 455.557C1368.41 458.816 1369.71 462.075 1369.71 466.637C1369.06 477.716 1365.15 486.84 1357.33 494.009V494.009ZM1391.22 473.154C1391.22 473.154 1421.85 329.774 1423.81 322.605C1426.42 312.829 1440.76 310.222 1446.62 310.222C1465.53 310.222 1483.12 319.998 1485.73 346.067C1496.16 322.605 1511.8 302.402 1538.53 302.402C1558.73 302.402 1575.03 314.784 1575.68 334.988C1576.33 357.147 1565.25 370.181 1555.47 376.047C1549.61 379.957 1543.74 381.26 1538.53 377.35C1533.31 372.788 1524.84 368.226 1515.06 368.226C1494.2 368.226 1480.52 395.598 1474 426.881L1464.22 472.502C1459.01 499.223 1448.58 508.347 1423.16 508.347C1399.69 508.999 1385.35 500.526 1391.22 473.154V473.154ZM1615.44 258.084C1616.74 237.881 1631.73 224.194 1655.2 224.194C1679.32 224.194 1693.66 238.532 1693.66 256.781C1693.66 279.591 1674.75 293.929 1653.24 293.929C1628.48 293.277 1614.14 274.377 1615.44 258.084ZM1576.33 451.647L1597.84 348.674C1603.06 321.953 1620 310.874 1640.21 310.874C1660.41 310.874 1678.01 318.695 1672.15 346.067L1648.68 454.254C1644.77 472.502 1646.73 482.278 1655.2 486.84C1659.11 488.795 1661.07 494.009 1655.85 498.571C1650.64 504.437 1640.21 510.302 1621.31 510.302C1578.29 510.302 1569.16 484.233 1576.33 451.647V451.647ZM1742.54 508.999C1726.9 508.999 1695.61 510.954 1703.43 473.154C1709.95 441.871 1726.9 365.619 1726.9 365.619H1719.73C1703.43 365.619 1693.66 357.798 1693.66 346.067C1693.66 340.202 1695.61 323.257 1700.83 317.391C1706.69 311.526 1714.51 310.222 1728.85 310.222H1737.98V307.615C1750.36 248.96 1782.95 232.667 1820.11 232.667C1840.96 232.667 1855.95 237.881 1864.43 246.353C1869.64 251.567 1872.25 258.736 1872.25 265.905C1872.25 273.726 1870.29 282.198 1865.73 286.76C1864.43 288.064 1857.91 295.233 1847.48 290.67C1842.27 288.715 1837.05 286.76 1830.53 286.76C1818.8 286.76 1811.63 291.974 1807.72 306.964V309.571H1825.32C1842.27 309.571 1852.04 317.391 1852.04 329.774C1852.04 335.64 1848.78 350.629 1841.61 357.798C1837.05 362.36 1831.19 364.967 1816.85 364.967H1799.25L1775.78 472.502C1771.22 500.526 1762.09 508.999 1742.54 508.999V508.999ZM2081.48 347.371C2080.17 358.45 2076.92 366.271 2066.49 381.26L1977.19 522.033C1954.38 557.878 1932.87 581.992 1897.02 581.992C1878.12 581.992 1865.08 576.778 1855.95 568.958C1848.13 562.44 1839.66 547.451 1847.48 529.854C1854 516.82 1865.08 525.292 1878.12 525.944C1891.15 525.944 1902.88 520.078 1919.18 495.964L1895.71 381.912C1893.11 363.012 1887.89 357.147 1882.03 349.326C1880.07 346.067 1869.64 335.64 1878.12 323.908C1883.98 316.088 1894.41 310.874 1913.31 310.874C1933.52 310.874 1947.86 318.043 1955.03 342.157C1957.64 351.281 1965.46 424.926 1965.46 424.926L2022.82 324.56C2027.38 316.74 2033.9 310.874 2046.93 310.874C2063.23 310.222 2084.74 324.56 2081.48 347.371V347.371Z" fill="white"></path><path d="M242.093 295.884C277.942 295.884 296.193 313.481 296.193 331.077C296.193 356.495 270.773 378.002 177.565 378.002C163.877 378.002 148.234 377.35 131.287 376.046C150.841 330.425 191.905 295.884 242.093 295.884V295.884ZM376.364 328.47C376.364 396.25 333.346 436.657 186.69 436.657C166.484 436.657 144.323 435.353 118.903 434.05V436.005C118.903 482.278 147.582 510.302 199.726 510.302C236.227 510.302 260.996 496.616 283.157 477.064C289.023 471.198 297.497 467.288 306.622 467.288C316.399 467.288 325.524 471.85 331.39 478.367L445.455 329.122L472.179 293.929L375.713 316.087C375.713 320.65 376.364 324.56 376.364 328.47V328.47ZM246.004 232.015C279.246 232.015 306.622 238.532 327.479 249.611L412.214 0L151.493 59.9589L70.0177 325.212C107.17 267.208 171.699 232.015 246.004 232.015V232.015ZM38.0794 438.612C38.0794 435.354 38.0795 432.747 38.7313 429.488L0.926758 553.316L75.884 537.023C50.4637 512.257 38.0794 477.716 38.0794 438.612V438.612ZM109.778 560.485L19.829 887L262.951 568.306C244.049 574.823 223.191 578.733 197.771 578.733C162.574 578.733 133.242 572.216 109.778 560.485V560.485Z" fill="white"></path></svg>