<svg xmlns="http://www.w3.org/2000/svg" width="2321" height="637" viewBox="0 0 2321 637" fill="none"><path d="M850.89 564.399C984.371 564.399 1092.78 456.309 1092.78 322.753C1092.78 189.19 984.371 81 850.89 81C717.203 81 609 189.19 609 322.753C609 456.309 717.203 564.399 850.89 564.399Z" fill="white"></path><path d="M841.159 216.659V428.74H908.581V409.671H860.591V216.659H841.159Z" fill="#808080"></path><path d="M773.648 274.525C789.689 274.525 802.619 261.482 802.619 245.555C802.619 229.614 789.689 216.521 773.648 216.521C757.608 216.521 744.678 229.614 744.678 245.555C744.678 261.495 757.608 274.525 773.648 274.525Z" fill="#808080"></path><path d="M860.585 120.454C858.056 120.328 853.25 120.172 850.953 120.172C739.301 120.172 648.435 211.07 648.435 322.653C648.435 376.851 669.494 427.651 707.64 465.853C745.942 503.967 796.767 525.027 850.953 525.027C904.932 525.027 955.745 503.967 993.978 465.853C1032.22 427.651 1053.38 376.851 1053.38 322.653V313.647H1045.18H908.769V332.284H1034.09C1034.09 332.691 1034.09 334.669 1034 335.182C1027.63 430.574 947.959 506.126 850.953 506.126C801.849 506.126 755.805 487.032 721.152 452.353C686.386 417.819 667.229 371.813 667.229 322.646C667.229 273.761 686.386 227.517 721.152 192.877C755.805 158.267 801.849 139.173 850.953 139.173C853.068 139.173 858.213 139.173 860.585 139.298V120.454Z" fill="#808080"></path><path d="M1274.7 162.372H1202.01V477.036H1425.26V415.784H1274.7V162.372V162.372ZM1585.16 357.123H1644.36V412.142C1633.45 416.297 1612.16 420.441 1591.91 420.441C1526.49 420.441 1504.7 387.214 1504.7 319.729C1504.7 255.373 1525.45 217.428 1590.87 217.428C1627.22 217.428 1647.99 228.856 1665.1 250.667L1710.29 209.117C1682.77 169.688 1634.47 157.747 1589.32 157.747C1487.53 157.747 1434.06 213.297 1434.06 319.203C1434.06 424.596 1482.35 481.705 1588.8 481.705C1637.6 481.705 1685.37 469.25 1711.32 451.082V298.438H1585.16V357.123Z" fill="white"></path></svg>