<svg xmlns="http://www.w3.org/2000/svg" width="2321" height="407" viewBox="0 0 2321 407" fill="none"><path fill-rule="evenodd" clip-rule="evenodd" d="M192.688 0C206.514 0 217.975 0.546309 217.975 1.27472C217.975 2.18523 224.706 4.18837 232.893 6.0094C241.261 7.83042 252.904 11.1083 258.908 13.1114C264.911 15.1145 276.373 20.0313 284.377 24.0376C292.382 28.0438 303.843 34.9638 309.846 39.1521C315.85 43.5226 325.855 51.8993 332.041 57.7266C338.226 63.5539 348.05 74.6622 353.871 82.3105C359.693 89.9588 367.698 102.706 371.518 110.536C375.52 118.367 380.614 130.021 382.979 136.577C385.344 143.133 388.437 153.331 389.71 159.34C391.166 165.349 392.985 176.822 393.713 184.834C394.44 192.847 394.804 201.042 394.622 203.045C394.258 205.048 392.621 210.147 390.62 214.335C388.437 219.252 384.98 223.258 381.706 224.897C376.976 227.264 352.598 227.629 16.951 227.629L10.0379 223.076C5.48986 219.98 2.5791 216.338 1.30564 211.604C0.214107 207.962 -0.33166 201.952 0.214107 198.492C0.941797 195.032 2.94295 189.933 5.12602 187.02C7.12716 184.288 11.1295 180.828 14.2221 179.371C18.9521 177.004 41.1467 176.64 339.863 176.64L338.772 170.63C338.044 167.535 336.407 161.161 334.952 156.608C333.496 152.056 329.494 142.587 325.855 135.667C322.399 128.565 316.759 119.277 313.485 114.725C310.21 110.172 302.751 101.978 296.93 96.3324C290.926 90.8694 282.012 83.5852 277.1 80.1253C272.006 76.6653 263.092 71.5664 257.089 68.6528C251.085 65.9213 240.352 61.7329 233.439 59.5477C222.887 56.2698 216.338 55.7235 194.325 55.7235C172.677 55.7235 165.4 56.4519 153.757 59.7298C146.116 61.915 135.383 65.9212 130.107 68.4707C125.013 71.2022 115.371 76.8474 108.822 81.0358C102.273 85.2242 92.8127 93.2367 87.7188 98.5177C82.625 103.981 73.8927 115.271 68.4351 123.83C62.9774 132.389 57.3378 140.219 55.8824 141.494C54.427 142.769 50.0609 144.772 46.0586 146.229C39.8732 148.414 37.6901 148.414 31.5048 146.411C27.5025 144.954 22.4087 142.04 20.4075 139.855C18.2244 137.488 15.4956 132.753 14.4041 129.293C13.1306 125.833 12.7668 120.37 13.4945 117.456C14.2221 114.361 16.7691 108.351 19.316 103.799C21.8629 99.2461 27.5025 90.6872 31.6867 84.6779C35.8709 78.6685 46.6044 66.8318 55.5186 58.2729C64.2508 49.7141 75.53 39.8805 80.6239 36.4206C85.5358 32.9606 97.9065 26.4049 107.912 21.6702C117.918 16.9356 134.837 10.7441 145.57 8.01253C156.122 5.09888 165.4 2.18523 166.127 1.45682C166.673 0.546309 178.68 0 192.688 0V0ZM1912.58 72.2949C1920.59 72.8412 1931.69 74.4801 1937.14 76.119C1942.6 77.5758 1952.79 81.7642 1959.88 85.4063C1966.8 89.0483 1976.62 95.604 1981.53 100.157C1986.44 104.709 1991.9 111.629 1993.72 115.635C1996.63 122.191 1996.63 123.648 1994.27 129.293C1992.81 132.753 1989.17 137.852 1986.26 140.583C1981.9 144.59 1978.99 145.682 1972.07 145.682C1964.8 145.682 1962.07 144.59 1952.61 137.488C1946.6 132.935 1938.42 127.654 1934.41 125.651C1930.41 123.648 1921.86 121.281 1915.31 120.37C1908.76 119.46 1899.3 119.095 1894.39 119.642C1889.3 120.006 1882.02 122.191 1878.2 124.376C1874.2 126.562 1869.65 130.386 1867.83 132.935C1866.01 135.485 1864.19 139.855 1863.46 142.951C1862.74 146.957 1863.46 150.053 1866.56 154.605C1868.92 158.065 1874.74 163.346 1879.84 166.26C1884.75 169.356 1900.76 176.822 1915.31 183.013C1929.87 189.205 1947.33 197.4 1954.43 201.224C1961.34 205.048 1972.62 213.607 1979.17 220.162C1988.08 229.085 1992.27 235.095 1995.36 243.107C1998.63 251.484 1999.72 257.494 1999.72 268.602C1999.72 280.074 1998.63 285.719 1994.81 295.007C1992.08 301.562 1986.44 310.85 1982.08 315.949C1976.98 321.776 1969.53 327.421 1961.52 331.609C1954.61 335.251 1944.42 339.804 1938.96 341.625C1931.32 343.992 1923.5 344.721 1906.22 344.721C1886.39 344.539 1881.66 343.992 1868.92 339.622C1860.92 336.89 1849.46 332.156 1843.45 329.06C1837.45 326.146 1827.81 319.044 1821.99 313.399C1816.16 307.754 1810.71 300.652 1809.8 297.192C1808.71 294.096 1808.52 289.544 1809.07 287.176C1809.8 284.991 1811.98 280.621 1814.35 277.707C1816.53 274.611 1821.44 271.151 1825.44 270.059C1831.08 268.238 1833.81 268.238 1838.91 269.877C1842.36 271.151 1850.18 275.886 1856.19 280.438C1862.19 284.991 1872.38 290.636 1878.93 293.004C1888.21 296.464 1894.39 297.374 1907.13 297.374C1920.95 297.374 1925.14 296.646 1933.87 292.639C1940.78 289.362 1945.69 285.719 1948.06 281.713C1950.06 278.617 1951.7 272.79 1951.7 268.966C1951.7 265.324 1950.79 260.589 1949.88 258.586C1948.79 256.583 1943.69 251.848 1938.42 248.024C1933.32 244.2 1919.86 237.098 1908.95 232.363C1897.85 227.447 1882.02 220.162 1873.47 216.338C1864.92 212.332 1853.1 205.594 1847.09 201.406C1841.09 197.035 1833.08 189.569 1829.45 184.652C1825.81 179.736 1821.44 172.451 1819.8 168.445C1817.8 163.528 1816.71 156.062 1816.71 145.682C1816.71 135.12 1817.8 127.472 1820.17 121.645C1821.99 117.092 1826.17 109.444 1829.26 104.891C1832.54 100.339 1840.36 92.6904 1846.55 88.1378C1852.91 83.5852 1862.01 78.6685 1867.1 77.0295C1872.02 75.3906 1881.11 73.5696 1887.11 72.8412C1893.12 72.1128 1904.58 71.9306 1912.58 72.2949V72.2949ZM606.38 72.8412C678.421 72.8412 679.149 73.0233 686.426 77.0295C691.156 79.579 694.976 83.7673 697.159 88.3199C700.252 94.6935 700.434 96.5145 698.433 103.799C697.159 108.351 694.612 113.632 692.611 115.635C689.155 119.095 686.062 119.277 560.899 121.098V179.371L659.683 181.192L664.595 185.745C667.142 188.294 670.235 193.211 671.326 196.671C672.964 201.952 672.6 204.502 669.325 211.604C666.414 218.159 663.686 221.255 658.228 223.987C651.497 227.264 647.313 227.629 559.99 227.629L560.899 292.275L627.301 293.186C689.882 294.096 694.067 294.278 698.979 297.738C701.889 299.741 705.346 303.566 706.619 306.297C708.075 309.211 709.166 314.128 709.166 317.223C709.166 320.501 707.529 325.964 705.528 329.06C703.527 332.338 698.979 336.344 695.522 337.801C690.246 340.168 676.238 340.532 609.473 340.532C549.984 340.532 528.881 339.986 525.424 338.165C523.059 337.072 519.057 333.066 512.508 323.233V91.962L516.874 85.9526C519.239 82.4926 523.969 78.1221 527.426 76.3011C533.247 73.0233 538.159 72.8412 606.38 72.8412V72.8412ZM777.387 72.8412C779.388 72.8412 784.3 74.4801 788.303 76.4832C793.032 78.6685 799.764 85.0421 807.404 94.8756C813.954 103.07 821.23 112.357 823.777 115.635C826.324 118.913 831.964 126.379 836.33 132.207C840.878 138.216 852.339 152.784 861.799 164.985C871.441 177.004 885.449 194.85 892.908 204.684C900.367 214.335 912.01 229.268 918.741 237.644C925.654 246.203 931.476 252.577 932.021 251.666C932.567 250.938 932.931 214.153 932.931 89.2304L938.752 82.6747C942.027 79.2148 947.667 75.3906 951.123 74.298C956.581 72.6591 958.582 73.0233 965.495 76.6653C970.407 79.3969 974.591 83.5852 976.774 87.7736C980.049 94.3293 980.231 100.521 980.231 207.962C980.231 312.306 980.049 321.958 976.956 327.785C975.137 331.427 971.135 335.434 967.496 337.255C964.04 339.076 957.49 340.532 952.942 340.532C948.394 340.532 942.209 339.076 938.934 337.437C935.842 335.616 926.018 324.872 917.104 313.399C908.371 302.109 899.093 290.09 896.546 286.812C893.999 283.534 888.36 276.25 883.812 270.423C879.264 264.596 873.624 257.311 871.077 254.034C868.53 250.756 863.982 244.928 861.072 241.104C857.979 237.28 849.065 225.808 841.06 215.792C833.055 205.594 820.685 189.933 813.772 180.646C806.677 171.541 800.491 164.439 799.582 164.803C798.854 165.349 798.308 200.495 798.308 243.107C798.308 304.294 797.762 321.776 795.761 326.328C794.488 329.606 791.577 333.977 789.212 335.98C786.301 338.711 782.663 339.622 775.568 339.622C768.473 339.622 764.471 338.529 760.65 335.798C757.921 333.795 754.465 328.878 753.191 324.872C751.372 319.226 751.008 293.186 751.372 203.955C751.918 94.1472 752.1 89.7767 755.556 84.86C757.376 82.1284 762.288 78.3043 766.472 76.3011C770.474 74.4801 775.386 72.8412 777.387 72.8412V72.8412ZM1113.94 72.8412C1148.69 72.8412 1165.06 73.5696 1175.25 75.5727C1183.07 77.0295 1194.9 81.0358 1201.63 84.4958C1210 88.502 1217.28 94.1472 1223.83 101.249C1229.28 107.259 1235.29 115.635 1237.11 120.188C1239.11 124.74 1241.84 132.753 1243.29 137.852C1244.75 143.133 1245.84 152.238 1245.84 157.883C1245.66 163.711 1244.56 172.998 1243.29 178.461C1242.02 183.924 1238.2 193.757 1234.74 200.131C1230.19 208.69 1225.28 214.699 1216.73 221.619C1210.18 226.9 1199.63 233.456 1193.08 236.005C1181.62 240.558 1179.62 240.922 1093.02 242.197V282.624C1093.02 322.868 1093.02 323.233 1088.47 329.97C1085.38 334.705 1081.74 337.619 1077.01 338.894C1073.38 339.986 1067.19 340.532 1063.37 339.804C1059 339.076 1055 336.89 1052.09 333.248C1049.54 330.153 1046.63 324.689 1045.72 320.865C1044.63 316.677 1044.09 273.336 1044.81 93.783L1049.36 87.4094C1051.91 83.9494 1056.82 79.2148 1060.28 77.0295C1066.46 73.0233 1068.1 72.8412 1113.94 72.8412V72.8412ZM1092.66 157.883C1093.02 184.652 1093.57 193.029 1095.21 193.029C1096.48 193.211 1114.67 193.211 1135.77 193.029H1173.98C1186.71 185.017 1191.62 180.1 1193.81 175.729C1196.54 170.63 1197.63 164.985 1197.63 157.155C1197.63 147.685 1196.72 144.772 1192.17 138.216C1188.9 133.481 1183.07 128.565 1177.62 125.833C1169.07 121.281 1167.07 121.098 1132.14 120.552C1112.12 120.188 1095.02 120.552 1094.11 121.281C1093.2 122.009 1092.48 138.216 1092.66 157.883V157.883ZM1312.6 72.8412C1313.88 72.8412 1318.24 74.4801 1322.25 76.4832C1326.25 78.4864 1330.98 82.3105 1332.61 85.0421C1335.53 89.2304 1336.07 96.1503 1337.71 179.371L1456.87 180.282L1457.23 135.849C1457.78 94.1472 1457.96 91.0515 1461.6 86.1347C1463.6 83.4031 1469.06 79.2148 1482.34 72.8412L1490.52 76.4832C1495.07 78.4864 1500.17 82.3105 1501.8 85.0421C1504.9 89.5946 1505.08 98.8819 1505.62 203.045C1505.8 268.784 1505.26 318.68 1504.35 322.322C1503.44 325.782 1499.62 331.427 1496.16 334.523C1491.61 338.711 1487.79 340.532 1483.61 340.532C1480.52 340.532 1475.06 339.076 1471.6 337.255C1468.15 335.616 1463.6 331.791 1461.6 329.06C1457.96 324.143 1457.78 321.23 1457.23 274.793C1456.87 232.181 1456.5 225.99 1454.14 226.718C1452.68 227.264 1425.58 227.629 1336.8 227.629V275.34C1336.8 318.316 1336.44 323.779 1333.52 328.696C1331.71 331.609 1326.98 335.616 1322.97 337.619C1318.06 339.986 1313.69 340.715 1308.6 339.986C1303.33 339.258 1299.69 337.072 1289.5 325.964V207.962C1289.32 96.3324 1289.5 89.9588 1292.77 85.0421C1294.59 82.3105 1299.32 78.4864 1303.33 76.4832C1307.15 74.6622 1311.51 73.0233 1312.6 72.8412ZM1666.08 73.9338C1668.63 74.4801 1672.45 76.119 1674.63 77.5758C1676.99 79.0327 1680.81 82.8568 1683.18 85.9526C1685.54 89.2304 1689.55 97.243 1692.09 103.799C1694.64 110.354 1699.19 121.827 1702.46 129.293C1705.56 136.759 1709.19 145.318 1710.65 148.414C1711.92 151.328 1716.47 161.889 1720.47 171.541C1724.66 181.374 1727.93 189.751 1727.93 190.298C1727.93 190.844 1730.3 196.307 1733.21 202.498C1736.12 208.872 1742.3 223.44 1747.03 234.913C1751.58 246.385 1756.68 258.222 1757.95 261.318C1759.22 264.231 1764.5 276.432 1769.59 288.087C1776.14 303.383 1778.87 311.942 1778.87 317.77C1778.87 324.507 1777.78 327.057 1772.87 332.338C1769.77 335.98 1764.5 339.258 1761.59 339.804C1758.5 340.35 1753.58 340.35 1750.67 339.804C1747.58 339.258 1743.21 336.89 1740.67 334.705C1737.94 332.338 1731.21 319.591 1714.29 280.256H1612.41L1609.86 286.266C1608.41 289.544 1605.86 295.553 1604.04 299.559C1602.41 303.566 1599.13 311.396 1596.95 316.859C1594.77 322.322 1591.67 329.06 1590.04 331.791C1588.03 334.887 1584.21 337.619 1579.67 338.894C1575.66 339.986 1569.48 340.532 1566.02 339.804C1562.56 339.258 1557.83 336.89 1555.83 334.705C1553.65 332.338 1550.92 328.696 1549.83 326.328C1548.74 324.143 1547.83 319.773 1547.83 316.859C1547.83 313.763 1555.65 292.821 1565.29 269.877C1574.75 247.114 1583.67 225.99 1585.12 223.076C1586.4 219.98 1591.67 207.779 1596.58 195.761C1601.68 183.742 1609.5 164.803 1614.23 153.877C1618.78 142.769 1626.42 124.74 1630.97 113.814C1635.52 102.706 1640.97 90.5051 1643.16 86.681C1645.7 82.1284 1649.52 78.4864 1654.25 76.119C1658.44 74.298 1663.35 73.2054 1666.08 73.9338V73.9338ZM1650.62 189.387C1644.98 202.863 1638.79 217.431 1636.79 221.619C1634.97 225.99 1633.33 230.178 1633.33 231.271C1633.33 232.363 1644.61 233.092 1663.35 233.092C1679.9 233.092 1693.37 232.545 1693.37 231.635C1693.37 230.906 1687.36 215.61 1679.72 197.582C1672.26 179.553 1665.35 164.075 1664.62 163.346C1663.9 162.436 1662.8 162.436 1662.08 163.346C1661.53 164.075 1656.44 175.911 1650.62 189.387V189.387ZM2150.36 72.8412C2206.21 72.8412 2224.04 73.3875 2228.58 75.2085C2231.86 76.6653 2236.41 80.1253 2238.77 83.0389C2240.95 85.9526 2243.32 90.6872 2243.86 93.783C2244.59 96.6966 2244.05 102.342 2242.96 105.984C2241.86 109.808 2238.77 114.543 2235.86 116.546C2231.13 120.188 2228.4 120.37 2170.37 120.188C2137.26 120.188 2108.88 120.552 2107.6 121.098C2105.97 121.827 2105.42 129.293 2105.97 179.371L2204.93 181.192L2211.12 187.93C2215.85 193.211 2217.3 196.489 2217.3 201.588C2217.3 205.776 2215.67 211.057 2213.3 214.881C2210.94 218.341 2206.21 222.712 2202.75 224.351C2197.11 227.264 2190.56 227.629 2105.42 227.629L2105.97 292.275L2172.19 293.186C2231.13 293.914 2238.95 294.46 2243.32 297.192C2246.05 299.013 2250.05 303.93 2252.23 308.118C2255.87 315.766 2256.05 316.313 2253.14 324.507C2250.6 331.791 2248.78 333.795 2242.23 336.89C2234.95 340.35 2230.4 340.532 2155.81 340.532C2095.05 340.532 2075.95 339.986 2071.22 338.165C2068.13 336.89 2063.58 332.884 2057.39 323.233L2057.21 208.508C2057.21 100.157 2057.39 93.4188 2060.67 87.4094C2062.49 83.9494 2067.22 79.2148 2071.04 77.0295C2078.13 73.0233 2079.04 72.8412 2150.36 72.8412V72.8412ZM43.3297 256.401C45.8767 256.765 50.6067 258.768 53.6993 260.589C57.7016 262.896 61.5826 267.813 65.3424 275.34C68.4351 281.713 74.9843 291.729 79.7143 297.738C84.6262 303.748 91.7211 311.578 95.5415 315.22C99.3619 318.862 107.73 325.6 114.28 330.153C120.829 334.705 133.381 341.261 142.478 344.721C151.392 348.181 165.036 352.187 172.495 353.28C180.499 354.554 193.962 355.101 205.241 354.554C215.792 354.008 229.982 352.005 237.077 350.002C243.99 348.181 254.724 344.174 260.727 341.079C266.731 338.165 275.281 333.43 279.829 330.699C284.377 327.785 294.565 318.862 302.569 310.668C312.211 301.016 320.398 290.272 326.583 279.528C332.223 269.694 338.044 261.864 341.137 260.225C343.866 258.586 348.596 256.583 351.688 255.855C354.963 255.126 359.693 255.672 363.513 257.311C366.97 258.586 372.246 262.592 375.156 266.052C379.886 271.698 380.25 273.336 379.704 283.17C378.977 292.093 377.521 296.464 370.79 307.754C366.424 315.22 359.511 325.418 355.509 330.517C351.507 335.434 344.957 343.264 340.773 347.634C336.771 352.005 328.948 358.925 323.49 362.931C318.033 367.119 310.574 372.583 307.117 374.95C303.661 377.317 294.565 382.416 287.106 386.24C279.647 390.064 266.913 395.345 258.908 397.895C250.903 400.444 239.078 403.54 232.529 404.815C225.98 405.907 209.607 407 196.145 407C182.682 406.818 166.673 405.907 160.67 404.633C154.666 403.54 143.205 400.444 135.201 397.895C127.196 395.345 114.825 390.247 107.912 386.787C100.817 383.145 92.2669 378.41 88.8104 376.407C85.3539 374.221 76.2577 367.484 68.7989 361.292C61.3401 355.101 50.0609 343.992 44.0574 336.708C37.8721 329.242 29.1398 317.041 24.7736 309.575C20.2256 302.109 15.6775 293.004 14.586 289.544C13.4945 285.537 13.3125 280.438 14.4041 275.886C15.3137 271.88 18.2244 266.234 20.9533 263.503C23.864 260.771 28.9579 257.676 32.4144 256.947C35.8709 256.037 40.7828 255.855 43.3297 256.401ZM2298.62 300.652C2300.08 300.47 2300.62 301.927 2300.08 304.112C2299.47 306.54 2300.08 307.754 2301.9 307.754C2303.72 307.754 2304.32 306.54 2303.72 304.112C2302.99 301.38 2303.72 300.47 2306.45 300.47C2308.45 300.47 2312.45 302.837 2315.54 305.933C2320.09 310.485 2321 312.853 2321 320.501C2321 328.696 2320.45 330.153 2315 333.977C2311.9 336.344 2307.54 338.529 2305.54 338.711C2303.54 338.894 2300.44 339.076 2298.62 338.894C2296.99 338.894 2292.62 336.162 2289.16 333.248C2284.07 328.878 2282.8 326.511 2282.8 321.412C2282.8 317.952 2284.25 312.671 2285.89 309.575C2287.71 306.661 2290.8 303.383 2292.8 302.473C2294.8 301.562 2297.53 300.652 2298.62 300.652ZM2285.89 323.597C2286.25 326.389 2287.65 327.785 2290.07 327.785C2292.26 327.785 2294.08 326.146 2294.8 323.597C2295.35 321.412 2295.35 317.77 2294.8 315.402C2294.08 313.035 2292.26 311.396 2290.25 311.396C2287.89 311.396 2286.43 312.853 2286.07 315.402C2285.71 317.77 2285.71 321.412 2285.89 323.597ZM2308.99 324.507C2309.54 326.328 2311.72 327.785 2313.72 327.785C2315.91 327.785 2317.73 326.146 2318.45 323.597C2319.18 321.412 2319.18 318.134 2318.45 316.313C2317.91 314.674 2316.27 313.217 2314.81 313.217C2313.54 313.217 2311.36 315.038 2310.08 317.223C2308.81 319.591 2308.27 322.868 2308.99 324.507ZM2296.99 329.97C2297.17 330.699 2298.62 332.702 2300.08 334.159C2301.53 335.616 2304.08 336.526 2305.54 335.98C2306.99 335.434 2308.27 333.613 2308.27 331.791C2308.27 330.153 2307.36 327.603 2306.08 326.328C2304.81 325.054 2303.35 324.143 2302.63 324.143C2302.08 324.143 2300.62 325.054 2299.17 326.328C2297.71 327.603 2296.8 329.242 2296.99 329.97V329.97Z" fill="white"></path></svg>